<mxfile host="app.diagrams.net" agent="Mozilla/5.0 (Windows NT 10.0; Win64; x64) AppleWebKit/537.36 (KHTML, like Gecko) Chrome/139.0.0.0 Safari/537.36" version="28.1.1">
  <diagram name="페이지-1" id="tP41Nxb9SZ85XxkedxKu">
    <mxGraphModel dx="703" dy="794" grid="1" gridSize="10" guides="1" tooltips="1" connect="1" arrows="1" fold="1" page="1" pageScale="1" pageWidth="827" pageHeight="1169" math="0" shadow="0">
      <root>
        <mxCell id="0" />
        <mxCell id="1" parent="0" />
        <mxCell id="UgK-DBmtqTshojyYZRiE-1" value="회원" style="rounded=0;whiteSpace=wrap;html=1;" vertex="1" parent="1">
          <mxGeometry x="300" y="120" width="120" height="60" as="geometry" />
        </mxCell>
        <mxCell id="UgK-DBmtqTshojyYZRiE-2" value="강사" style="rounded=0;whiteSpace=wrap;html=1;" vertex="1" parent="1">
          <mxGeometry x="80" y="240" width="120" height="60" as="geometry" />
        </mxCell>
        <mxCell id="UgK-DBmtqTshojyYZRiE-3" value="수강" style="rounded=0;whiteSpace=wrap;html=1;" vertex="1" parent="1">
          <mxGeometry x="300" y="240" width="120" height="60" as="geometry" />
        </mxCell>
        <mxCell id="UgK-DBmtqTshojyYZRiE-4" value="진도" style="rounded=0;whiteSpace=wrap;html=1;" vertex="1" parent="1">
          <mxGeometry x="530" y="240" width="120" height="60" as="geometry" />
        </mxCell>
        <mxCell id="UgK-DBmtqTshojyYZRiE-5" value="강의" style="rounded=0;whiteSpace=wrap;html=1;" vertex="1" parent="1">
          <mxGeometry x="300" y="360" width="120" height="60" as="geometry" />
        </mxCell>
        <mxCell id="UgK-DBmtqTshojyYZRiE-6" value="수업" style="rounded=0;whiteSpace=wrap;html=1;" vertex="1" parent="1">
          <mxGeometry x="530" y="360" width="120" height="60" as="geometry" />
        </mxCell>
        <mxCell id="UgK-DBmtqTshojyYZRiE-7" value="섹션" style="rounded=0;whiteSpace=wrap;html=1;" vertex="1" parent="1">
          <mxGeometry x="530" y="480" width="120" height="60" as="geometry" />
        </mxCell>
        <mxCell id="UgK-DBmtqTshojyYZRiE-10" value="" style="endArrow=none;html=1;rounded=0;fontSize=12;startSize=8;endSize=8;curved=1;" edge="1" parent="1">
          <mxGeometry width="50" height="50" relative="1" as="geometry">
            <mxPoint x="140" y="240" as="sourcePoint" />
            <mxPoint x="140" y="150" as="targetPoint" />
          </mxGeometry>
        </mxCell>
        <mxCell id="UgK-DBmtqTshojyYZRiE-11" value="" style="endArrow=none;html=1;rounded=0;fontSize=12;startSize=8;endSize=8;curved=1;entryX=0.008;entryY=0.15;entryDx=0;entryDy=0;entryPerimeter=0;" edge="1" parent="1">
          <mxGeometry width="50" height="50" relative="1" as="geometry">
            <mxPoint x="139.04" y="150.5" as="sourcePoint" />
            <mxPoint x="300.00000000000006" y="149.5" as="targetPoint" />
          </mxGeometry>
        </mxCell>
        <mxCell id="UgK-DBmtqTshojyYZRiE-14" value="" style="shape=stencil(pVrbchs3DP0avWJIgjc8p+l/ZCZOralrZxynbf4+2CpcL4HVWWn6JsvALggcHFyoE3/49vjp68MphW9vry9/Pvxz/vz2eOLfTimdnx8fXs9v+unEH0/84cvL68Mfry/fnz9f/v76aZFcPv318vfyhH8veoVyX5RS+HH5IlLj/774/SL+dH5G4pmqQPE2iTfqEYrzbEykhK2Js7yaU6F8mOUbSbvDnhSoJiRfjHwmhuets/2pUi9Ivhl5OZAvdZJnpgj9yfPzWb+B5+XZn9wpQH/+etqKnkAF2s+z/ZmphjvsyZUasD9Tn+GZhQqw38mXRNyh/JwtRSMC7WkyywuMV6Yyx6vGgZAr8mn2f80UQfoyiXm+4hPYwxafVe0H/uRBHis9RBJoT5vj2woFgAf//EYV2l/n+PYA8cCDbVZ5ppyRfM+zfBlvvBIvwz+9E4PnV8pzfCUMhtyV7yObVvkI80vpuM8GSSIBCRwLdfMGxSA4gRJsmF0qmtTgDeqjOGNOKiWk0JxJdcB8P2hxYHhVaDAKnEfR2igUpNAoiFWoyCShlq1CBomTEwWnEIFJSrS/4rrxUkVUp7XJKQRk0uqTTaQzIjsZR9xgCVb7aNNfePhtXyFTMPmTxqn2FaotOIIJuHTLYJqhDTCAEnqcFbqWfODWyqOibhRQDVFKD4b0OmXg1toty3dNKVDVWrQ0owoop1u2WOqaosCk1p2XKuxLu/aVzSkA5uvZpqgqFODW5d/OJFQbFq93q8DgDYoc0x2pAuqWFczJnSECt2p+xewUgJc0g8W5NYBDS7dkrBURRVoUzM5LAWBJFUxPvrgVpKgqNOcl1ESqgpg4tNFn7RfFEEbXstFogFyXV8zEtDQC2Cabo6unrymY1mGhDRwIU6hVgZFCd82VKoAcVQULV4G9gzSHvk6CEqKNWXdLfcikZgc2DRyE655CRnHwJtUxRNx66ArL6I5bNakRlnzgCpyad6BRYZu+Az5lsoMcdQqoUd9JoAZpYz9HC8KGp4EOW6wdolFP30dlcsR9liwFc5+nY8FwvVvBVwjBTOZrkIzafWuVEwwmX0cFBu6dJG6MwwJOR98og7TbiF4BeEn7Gb7rDdoxJc/3uCcTFwfUAGnX181AoCkFmKw62lAFNB1r55qNgroBKWSb0woWtK/S7rtmq4Ba3SK2r1xGDqRQLWscDTV5cMRmbIJvSHapp4NZQ28IA8ybWRFulbobmzqe5KrNacFozTpRm8AJfkPaUUBnYEfGC5+jVVGzaN2UjGtrAbtHkJFT1xYPdmgXuH5LrttYSgbAxrKQKlYhgDdEse2JRg5tQKNb4Qouo8vG3+0R0NDe3JBf4Eoq205A5dGR04DBNqMBkuJomzcsJgAWgYqp0R3u7MKY5jfdGFoIBAuigx1lGN64cQeq8jPmDnasrq862OH656exRb3tvA2nZbDxqg0WkUB5xqdWFbQ5CHaXURPuPK3/taagHVS0hVxLCkwwu5wsDMcwtynR+pABp0TrHy0PCe2U7U5cq0MA5SnaxeTBndB6o7DKB7iMTdb/y50WeH6y+2cuEP/JNvGcYMecbId9cOeXBtus8vhOMVn/HNxZsl2EHdyJsm1lD+5c2frz4E6XR1O5yuM7Y7bdDb6SZksn+MLbiePrdLa713jgezPPBTgV8Niyvovj26zSjDjDyzVzFxTgbtDd02Bazvaq/kjcdAFHxoj1DDpqsZ0bdmQZ10O3hamMenwbCP7vLzasuH54/3HIl/PT0+W3Jdv/2x+T6FeXH6Lwx58=);lineShape=1;strokeColor=default;" vertex="1" parent="1">
          <mxGeometry x="134.9323102916726" y="301.99196506130534" width="166.01098550483812" height="116.3388154831448" as="geometry" />
        </mxCell>
        <mxCell id="UgK-DBmtqTshojyYZRiE-15" value="" style="shape=stencil(rVjZbhsxDPwavxK6RT6n6X8EiFMbdePAca+/L7cLbS3KO3aAvjkbzorHcEjtJj68757etpvg3s+n49ftz/3zebeJnzYh7F9329P+rL828XETH16Op+2X0/H76/P899vTZDn9+nb8Mb3h14zzFPwECu73/MBRTX8ffJ7ND/vXC/NEtRpz59bNhZI1F79u7jPV0tl7ynXdPgSS/v2BXF63j45SNvYJuB+rtU9UCshOpOw6+0oVxJuYcujj9eR4HZA14P4AX6iACHIhSX3Erp15FVA8eQMoFAUAMiXpADHCGIoQG0BtTl4F1ES+z1JK5EAMVd/Xn5AqMXCJlWY9IDviCADZtk2OjbrXAdyIvwASCaCqhMb8BbCceR2QiZM9IYMYRMnHNoYA6iBCLtoTEkirApJxicnhE0z/F+0olCVpSVwaTlscUMO7RbAWRMWFENtyWvyI8ipNIxpAPDESSaHYc0O0qUHLaeW4r5wsQrsGSMECGNBVqhVWfcKIfdV2kNyoXLVBs74Cn+B7l9hRRGQaADW06bXqUp8l1baCXSo9NbJANZ7SalpOufShwmmP3gAYcVXAx8inI6OADpro3adVRwbUmaGBCjchubtHM+zqUQY4wJEyCY0ByK00GSlTvQ2oEINYTqVBJ7AV/Is8/C9EblPtwikoHDqFTNiVAqiEzjkzhVTLPNABFVPXV0J03APx01md+hh4KebaNsB9D7FuseCEGkn6E6q0HWdtozFs0legtKquxKElKtqZnCV40c0VCLg2MRtp0rYGHaGbZTWz2pOgXZdtR6RCFZBPl2NTOH2C5HXavntpSq5V5s71Pgp5kNbx/qAApGXjBUVdcmhE2AuQ2hfAjOF+lXzb0q47ZPdQfT+DMmsCg7UPoHnUW5NRboqwYp962sUMe81Z/2OAFdNsmwtfbdNlzb73J0S4RQ/2nuG8Hfzxymnov4lX4AV0SGeGMjFWC67bAxl8W4Du4xr+VHDTXH/8+yrxsj8c5o8al/+3XzH00fwFJD7+AQ==);lineShape=1;strokeColor=default;" vertex="1" parent="1">
          <mxGeometry x="423.57639390867894" y="391.5128511247558" width="117.21769637697389" height="7.153348502276913" as="geometry" />
        </mxCell>
        <mxCell id="UgK-DBmtqTshojyYZRiE-16" value="" style="shape=stencil(lVfbctpADP0aXjXalfb2nKb/kZmQwpRChpBe/r5yXRtWNieTN2N0vLoc6Wg38vC2e3rdbiK/Xc6n79tf++fLbiNfNjHuj7vteX+xp408buTh5XTefjuf3o/P4+/Xp8FyePpx+jl84feIy5VqG1CR/4xvIlX59+LraH/YH2/si1KJnb19gIF9Je7tg1BJANCo9A6FSgGcUJma9BEEagoASsEBKkm4D2hMsXYAUZIMAIkkdQBlKiCrLfusaiEBMbRC2ruUBAMsxD7oVKigGBppH0OO1AAgMBNzjygU0RHZA0okabAQuU9TyZTBCTVRdGyNpCBNA/u0B2RYauN3Kx3AnFTA75xIe35bLUu5D0hG/z4Gq2UDdNU6eTwDGuV6HyDFZ+mmlquImKhWf0QFeQ2JUvSA/4eu59W7ZEFH4FGg6mLO02BbtV9w1XpWgT9hmoqzvVBDY4xC3z0tUsYJUhdwoAyqbCUoLmIbhLjKgT2ggpCNR1G9SwHEYExl8YAGijb0wiKrDOZkblO7zwCFZStMsqgzdMmI5/q5TJNzHcCLVqiUUD8blYJvBQUADcQLAOJetCzxZwCmsE5zB5cAl2xK8iJmxD0voENSgUMmuC7iBEceL1KqE7PWa+CXkoF3wJ+0qAC2D+xntskIGvLW/ux0J05KtF7j6IWqFKg7NpFSX+Mi04xar1n0SbXuQ4uYLUUekGCWJPmhmholUDYxtXeA9JGySV+HxJRQDGUauvMiphSBjphLrnWkTiPnXlrdGLY3KEtxVvt5XbWxicS5TSvOzQaNdkM7wUlJULi4xezT2uB6a+e7vU3gpcHsNTt7tI6ENjXX9RKDlgv7W3v7AFlh8WpfAobLhQS/gTFUKWOdE855fqwrgqWjOXuUH7XGrd4etE1Sv9QyJJBpoOO0XXfA97N6PQhwyb7eI671ZWT/yUvtx/b2cL1Bv+wPh/ECfvu/v3Hbq/G2Lo9/AQ==);lineShape=1;strokeColor=default;" vertex="1" parent="1">
          <mxGeometry x="589.2809739052623" y="418.84113118061623" width="8.500120738999385" height="65.18777061156175" as="geometry" />
        </mxCell>
        <mxCell id="UgK-DBmtqTshojyYZRiE-17" value="" style="shape=stencil(lVnJcttIDP0aXVG9N3DO8h+pijNWjWOnHCcz+fuApWqaDZBP0k2m8diN7WHhKX/4+fjlx8MphZ9vry//Pvx3/vr2eMofTymdnx8fXs9v+uuUP53yh28vrw//vL78ev56+fvHl0Vy+fX95ffyhv8vuEgcF1AKf8aDcnnw+SL+dH6exKVN4pW4H4snyjK/PVCtx/KZln9t5Ss18P5CeZbXC4ZyLF+p5lm+jRvuyjdq8/tzpAjku31/1vuD+zDlPssLlXwsLxRnb5VMAbhLqBv5Niy8795Aqc4AJgEXUkCbPVwjZQaAaE+ohQSYSAFltlHlYeUjQJ1jtCWqAQKMl1ujAqJ0AcwndA1rrIPJg17GK47MynMg9Q4TYXFcmAFCAiMjzZHBiQI4gEecrfKZOvCzxtmsANeh0oF8mX3Amhswc6KTr+A+ao1u5Rl5IFEzCsiI3H1AHfbYACrgiqjJ7E5gkJzKpkUsQMAJSnfGqBKG2fYB6mVxAMTXgXpxAGDWnKl2C8johEbCFsBA6RJGRVoBkTpI/1IcIA1C2Acw9ZnCZNVqv+okS2FSKAEr1Taq2AbQgNJVnB8qBaBDy6PMbwAZWEkpkR0AKd1k5NcGgMK7ryy9AhosbsqhXB0AndBt+dQrCSAN5VBvJVSsWCtDdUoDxymLWh3qeLIPqJbIFgBwHHcSd0JHOsh43waAao/mV8kOAK6k6WIzruK2R7s0F0sZVTfeiVZ4JbH1arEScJys5L4JPtQaKsBHawckoADLfJ0KcNwOgCEZ71xJ7YZPsEoLHBd2zCrDMzc6LoZAAXmOR7+5OUKQ1t2ZSWCBUIBp997VOgLYhGBYURSQDX3rJa8AxAISsmt3dbeNNvkIYOm7wdFKVUyeZ7DjmmMB1DCp1aMjJniCBiffpYMGwn1WEkeu2A+baL7V1Wsff2swiR3JroWrOHa9khBstwDXUo7tXHxDVt+L8DVCsJ18FZLRYN9a59RywLA7lRTPEDu1WmBRWboBp3REV/L9huC5L44FxhaAmiw1olGah1ZHXZkdOhgulZa+z2VERyck18YxTGvtXburpKhh1+7YjgQMe1ftvz3jo25AO3xbhDqM1rp2qhtABM2uTinZ9d/oSsXl6NIC4UnL6lBheOss14wfCtwK6LTIRuk85vjDeTRaQALhvTPxZphxOzN1hjP1ztSuALRkTa7MqQ53bR4UABde1dXFjNdRaXTbGwCsEI6WdEIGju6ud8ATtdb95u6DAsmxXiQGyZOsgZhhVU9juNisx1ByZps5nHDm2B6XAxz6mk3lfoWDqRv5Np4crOtMmvUMFxpuDLiyYWUbP1dWuOqdOT6XHTHwF9vCXBkucL08nqHZ7g2UjVH8sy0fReDaYO0xV3mtulC+mO8AGcZ/s/tqpW40oGs+zvGZsb+qXW/nhEuNfb9qhO6TxmpqlY8jQvYJzuZjbKPt2ZUPNl9ihP1BGGywxid0lxsqIpykgl3mRzggBGtMvIENg5nexdFmPthQDuOj3oG4YaoAy68r1wF2r8H203joiKMwb8TRRwX7uS/gYXFQ3rs42v9E2yyp7kDVaEtWhCF294fiK+L64/2b9Lfz09Plk/b2//Ybtj66fP/On/4C);lineShape=1;strokeColor=default;" vertex="1" parent="1">
          <mxGeometry x="362.4527065982643" y="419.4523363842195" width="171.43077319934537" height="103.16561900304123" as="geometry" />
        </mxCell>
        <mxCell id="UgK-DBmtqTshojyYZRiE-18" value="" style="shape=stencil(rVhJbhtBDHyNrkTvy9lJ/mHAcizEsQzb2X6fmgg9EdmacgTkNhqxurkWydnFm9eH2+f9LrjXt5fjl/2Pw93bwy5+2IVweHrYvxze8LSLH3fx5v74sv/8cvz2dHf6/Xy7SC5PX4/flxN+nnBeclpAwf06vXDi3J8Xn07ij4enM/EkJSrxIC5vi1ep+vQqLm6Leye9KXkfJVYCSJKc1sdJIgr5Jr5oQJZAADCwGECT2AmgSq8KEOFjAohRWtAAeLkRQLdGxzrCcjloSYK+IcFL5IYEE3WYU5DqtwEZaaC9lPJww2VAHuetgC49EQCM1qmU19hfBJQozgCqpEIAZWTOCmj8hi7VTQBiQw22eqASM7pmSd4CYiAApLcxutDANWezFYBAAtfiBQCjgAYFugbk4bfLgC4+W4Aj2dqDeHNDpPXQs3gTBy+d2NCrtAmQiJd6k6wrDhVSSaT7bDTSkUQaAJNLBW7ggK5VQv4GopJ3aytY2bvSUOOKpo1oSSrXKenIdU8rCH7t+oZeJLNQg8m0DcudDFAHWZ8BGqENKGD8iiMqB0Rdox1NjrkVVKpZoFXxpIIAKNqG2kcX+1eAl8ZvMCqVJPEqo8GVnhDT7FYUNWMyeL0YNvZSGGBKjaWLXZV8aEGMvuf0Lo7OP3MBoSmxXLpUo4nn90QDLUjgAEM0IGga6m57ELLFMcBElnhTeY0aOj7zw/9CTD0CdmXGZVMXWi4l2TH3uaVIyKA4d1IoWa/q1X0dKDangWIBntywzBvGS2lQyeZEY/g4jpl/c2aaAJ64FV2tGLcGypZl5mMnjaiERtu0Sq1JY8NuH535rC++Mx2buQ8E3khFgOqaASTKlpjwg+ENR/kYO4Q3jF8pDWBLMfRa+KaFPaiaiSaOI7Y2rabTu3DGxy6XdXqDj9k47dcKXhmfN1KsqyYOCCVjDWy8Udf0snsRQB1kvcp7OjygLeuNOmY633sbtWV7JfITY0RHJwc3rdMrDW7IG/+EQnuDsywcsAtQ/Z1mi+UEqo/pt74MD2/Jm8aDJKTypnm24eAt95gpia4ZbsRyjRalRmcLzA/W2Mgd43tHmfrKT0/viuPh71eu+8Pj4+kj2fn/9qsYXp2+qMWPvwE=);lineShape=1;strokeColor=default;" vertex="1" parent="1">
          <mxGeometry x="421.41557148934294" y="267.4199251351988" width="111.76874521854052" height="10.008868580804574" as="geometry" />
        </mxCell>
        <mxCell id="UgK-DBmtqTshojyYZRiE-19" value="" style="shape=stencil(lVbLctswDPwaXTEkQYLkOU3/IzNxak1dO+M4ffx9oWqoiJC8ndwUGhsCi8WCAz+8HZ9eD0Nwb7fr5fvh1/h8Ow78ZQhhPB8P1/GmXwM/Dvzwcrkevl0v7+fn+e/Xpyly+vpx+Tn9h98zTjKlMKGC+zOfJMr87+DrHH8az+v4SqF08YEpAEBO5PsLoicn9wElUDUZVSr+PqAGSq4D5NyS3AV458j1iBopOnBFJS89QMiBK2oi9j0gkwCaSqGSeoCeZABwFHMPqCQVNEJp5w6w4mG/154S2ysyaF3S1okFoBuiUAiWpoIAgZy3jQig6ugo93rVVkuAN4hpxFLVPiBTNCz5Jsh9lpYEFoAjBjUIU+xpLRUOaWbbagUISElnjtmm5ABLU8bFAmoEACGOltYAaFXlpNoDuI3IPYDtdGr6vZdSNS6QyaMaPIXNjKJOF22c6XRtU7vfuNi8dAVA4hPVUtwAkPjSRt61WdW+vAsFb4sOgKXI5A2tQgVNnNtYn+4MYK6fBjA3K102RIFF606TvgZRHwG0em7rYLXlCmKpudZqjSZQwmZj6f4BlqHZ9rJQnQAZcfOfFs6Qntz28ZI8eRCu5JhsPHkwmJp96afANYvdjy8kxcQ7wD0velzFo6UTrbOo+6EZC3YC1BtB/knFKIYfpB3dB968waii/SEt3Q81oPZ++k3433j9+HiAvoyn0/x+Xf9uH6x6ND92+fEv);lineShape=1;strokeColor=default;" vertex="1" parent="1">
          <mxGeometry x="446.39277001062374" y="216.39862574624578" width="4.760435264565103" height="27.107089662437943" as="geometry" />
        </mxCell>
        <mxCell id="UgK-DBmtqTshojyYZRiE-20" value="" style="shape=stencil(lZbdbtswDIWfxreEfiiJvO669yjQdDGWJUWabuvbl57hLJSdM+xOUfRZ4uEhpSE/vO2fXndDCm+X8+n77tf4fNkP+cuQ0njc787jxUZDfhzyw8vpvPt2Pr0fn+ffr0/Tymn04/Rz+sLvmSuNWpuoFD7mGSVNfya+zusP4/FmfatUg1vPgbTeB1SJowMkkQoEmnigUUFAo1B9CJFUARCpZA8UaiAGyf2RVIjBkRpTTR5QEgDUQiGsgHgfKIU090dK7T7AQrn2QXMGQKagvawoD2aE6newxEW0Q6TsYzBrlAIAU4kd0CyqAFSyHXziLDPCADDz+Tw0OxIAqi4hXoG45H7bGkJV+h0icKuJmLmPAQHKlLz5WiMGKplzis+0WKYBEEPo7SqVAsjcZM7OTIEKsKtmqsUDvHSebZkqlc7f1tpABZkorQMU+rsKRZ+5Gx223SQkXRsQUmS/VQmphQWCYF4K5gpYd0UlFHu/iixK/wcAmmVKfXe11oMafqTUyYqLeuW9yDDkQOzrJ0bYZdJizGvAi3e3bUHJp6wsPWc7WmtJ/j60hIFCiFa73kOmF3BEsur38gdKQM1s5yndeuTpvLpHAux35lCpXbwBrLcSYC8/w0ukrL5f8cXZVnc5fPD8+4Fkg7+vq5fxcJgfZ7f/968xm5pfcvnxEw==);lineShape=1;strokeColor=default;" vertex="1" parent="1">
          <mxGeometry x="515.0935164268931" y="222.09379113176374" width="6.45696367521623" height="13.508539320008595" as="geometry" />
        </mxCell>
        <mxCell id="UgK-DBmtqTshojyYZRiE-21" value="" style="shape=stencil(lVbZcuJADPwav6pGc89zjv9IVcjiWgIpQvb4+5XXNcSSoUPejJm2ru4eDeHuffv0thm8ez8dDz83v8fn03YI94P34367OY4neRrCwxDuXg7HzY/j4WP/PP9+e5pOTk+vh1/TF/7MuNYotQnl3d/5DTOF8P/N4wzYjfsFoFaqUQF8ptwAIFEsChAq+QoAkZpXgJSpOQDIFFkBiiPOAFCoJQWQqmCERFkX3TzFdB1Q5Hu66CafAG3NdRWhEoOUUqKiuySjzHwdEJlS1ZN2jhwI4QvlakN4fx3AMmpNplYoFFA1eXM+UkYByJmaGVLJkc96zgVyNZLTUxMuwoI9ORNAEoqgpYGCrri0HvMiIGSqegaldHlc5gV32twIyNE6wBcplUSNV0UDMdRAta3aijzmPKXF3Ap2AJPSRAxkSrySW4T6LKJ3Q70vqO16iUvxgAgxd9+9VZ/BEzcbAlkAt66WG02mWp+cXAxwya/0LG0DcjjXt/DhCsb23fNMRU9ZLgaHZkCs9S83D8pfouuRiVwTuHhYDEYPQAwhYb/IRmvEoIDJUXVGqfvHZQq5fu+dK6AKpByE9NrwPLxpY7L5uK7Uy+4lDUrmPIP8s/gpm/NIMpOMszkfkE9IumY9ogAEIHw0/u6pgHm1aPsTIYEmvWoC4eVrYSGfBGoA8O198AaAPHyuny/jbjdvr8v/7boqr+ZVNzz8Aw==);lineShape=1;strokeColor=default;" vertex="1" parent="1">
          <mxGeometry x="431.50580337186784" y="342.8173708616846" width="5.672598983299849" height="22.427023487752876" as="geometry" />
        </mxCell>
        <mxCell id="UgK-DBmtqTshojyYZRiE-22" value="" style="shape=stencil(rVfZbttADPwavRLL5Z7PafofAeLUQl07cJwef1+qghSTlqco0DcdO1pyOEOuBnl42z+97oYY3i7n09fdj/H5sh/k0xDjeNzvzuNFrwZ5HOTh5XTefTmf3o/P8/3r07Ryuvp2+j594eeMk0q5TqgYfs1PUqKc/jz5PAMO4/EaEKiwAeRCvdwH6PckGkDJVPJ9QGEqxQICJbCDvm52hyTUUEiFQjcAyRQiADA1y5LSkAWw1CkmA4hp+cQ2oFEOBsCNCqpDp2rrwJFSBzlEqtkAKgVEUiWxEUXqIOUcqTWzXikCnOZGnd360ECVE1UrC9UJYLR0r4pMzPfXV6Fs+WENCOi0Zm8dztRBRApwwlZKI9pBfAqxUQQ1qGF5vepUKCJSM0Un7LKUcbtqnZIDNOjmLJTEAxKog+quNh8SA1rV7GyFJJEY5KDW6Y5WTRrkMJnT5qBardicrsFwwuZkL762uHV7fV6aw9ryiJE5A3W7nqEZpp5uza9eCEBHG+bvwPxFdWytIEvV/8v6zl7XmjDqXhzWBFdGNSeQctcGbEWhgwuNqSkmK7umgwuI4rZfdO1RqGrKkpWdBllADpqi+J6HCx1vhNfrsukmoJHY9a0Sgw1uyqAtqoLCFS8MtVJBhRav7KgtDUh1auqWVN2zgIw/BvfV7M+ggak03ShXdaOOp0UIDhDxDs3XWQENKEl4OQRehQTPL3rKcyxlyJI29ep2aDDpaWzYHDRIBn7TJuwnD27CspplBVR4tNWQujs8MwmaPP982v47QC8+Dvcv4+Ew/xtcv/c/A/po/pGQx98=);lineShape=1;strokeColor=default;" vertex="1" parent="1">
          <mxGeometry x="487.9461703291979" y="347.38954497508735" width="15.75157418790127" height="15.172966552331218" as="geometry" />
        </mxCell>
        <mxCell id="UgK-DBmtqTshojyYZRiE-23" value="" style="shape=stencil(fZbdcgIhDIWfZm8zQAg/17Z9j85U606tdqz9e/tmZ0c0uJ47xP0I5JwEBl59bp8/1kNwn6fj4W39M76ctgM/DCGM++36OJ50NPDjwKvN4bh+PR6+9i/z74/n6ctp9H74nlb4nbmSKZeJCu5vngmZ6jzzNAO7cX8FVKEsBuBKrgKg9oAE8gkCbLeUhEoEQKSUDZDLeWYRKIl8MEDRmHwfyBrBG6Amyu4+kDxxMoB3jhwgYu7TVAsVkFcWCs4CTBEoF4RctKeOxHIf8IXYpikHikAIf+MNUW94AGSSaoAoFIE3AlOyeWU+p2E5S9yfQZcQILVuQOwZdJNoS9Ls3wA5u2XZTIHECqeJ9kDpSaauRiNVcAY1QhdBzeLBli5WazpkSsBLV25uRaqWRyFawTQzRRIQYirJzq5atkBqLfouwqUxLBepthWb10vrWZY6UOAeyKCCtDV625mm9gmUC4Wc3VLJMMIE1BsA2FW9JraVlQB7n3c9oMKhCLEvIM1zBPZ25/umNQ1tVEC2G+fFCC8g398O2hNQuQlVu752DBfA+q0ptnqO5JFmeuIuo9DY7KjY71UxdJV4EntifPWorW++R/dC4t7V3DlIB5cHx2bc7eb3yvX//QNFp+bHDT/+Aw==);lineShape=1;strokeColor=default;" vertex="1" parent="1">
          <mxGeometry x="508.8679608424759" y="366.8753124585194" width="4.672539772115215" height="4.665236216357243" as="geometry" />
        </mxCell>
        <mxCell id="UgK-DBmtqTshojyYZRiE-24" value="" style="shape=stencil(lVbLctswDPwaXXdI8H1O0//ITJzaU9fOOE7b/H2gauwKYrWubzSFNYHdBcghPLxtn143g7i38+n4ffNr93zeDuHLILI7bDen3VlXQ3gcwsPL8bT5djq+H56n369PY+S4+nH8Of7D7wnnA1odUeI+ph0H5/5sfJ3i97vDLD555GjiBc2vx9cCl0y8HpjX45uHbyY+IxQSH9GcideKQiKAgmILlgjPMmpIiwoKcl0HeHel8IJIgkRI1SO8BWSlLRJARgsGUBoqkaEFFAuoDZHQpJ+rBYxMEyFqWhqjJRQGUCfZolX7QngtFV5sDQFRCCAhWamLRyJSlwixUqeCSHToAVGVZgBNydpbKmLgRVsdfEa6i9YKYQ2qui1KgJCERmNYnRO3qjrPxnt3aahVby8mjIPc1T1BqFX/0aCxIBEn9TMgCwJhqZ8yqnxlVUdUa4yake8alMp0JkLU60i5AjJVrh/dNwD93aA0uEaE6C6fmTQr0iF7e0Slbrr272yMCfFGXJagLLAZozawKmjDRlKAu4zp2aQvxEj9VaIakHx6ZwfaC10+2juMn65e8ZeJ9n98eqHjq9MrUXp6P3h6rY2Os/nf8NvN55Eu/r6tXnb7/fQ0m39fvsV0a3rHhcdP);lineShape=1;strokeColor=default;" vertex="1" parent="1">
          <mxGeometry x="512.238327750541" y="352.22539878026305" width="12.596990843549065" height="3.549202439473902" as="geometry" />
        </mxCell>
        <mxCell id="UgK-DBmtqTshojyYZRiE-25" value="" style="shape=stencil(lVbLchNBDPyavXaNRvM8h/AfqYqDXRg75RhI/h4tW2usSdzAbb1Wr9RSt2YmvXvZPjxvphhezqfj183P3eN5O+mnKcbdYbs57c72NOn9pHdPx9Pmy+n4/fC4/H5+mCPnp2/HH/MXXhdcS2g6o2J4W97UiNB+v/m8APa7wxUgB9TuAE0h+TYg2t8e0BtauA2QiuhL6h2dZBBBEg+wT5AMBTokCGiFUECOnrIgkx4FaPM9DWvGG/Hi68kNyjqE5vmmgprIzMaGaqF8JSAkB4gdlRWUUX0G63EQ0lFBlREglQAqNHsO1jXCQU3GxQMqHZrmMUOqKGRqcxOrH1tHZBkKkgdUoXPWBPFCahEpEkBA9By6KZVkMGmEwZzWJTIH6aOWJJhamDZ05Xjl/0zUWtGHePsCiVeUwZ0JncSb1z3lmhBJUy/01vgSoSReEPwMbGUmplR0X7/2tcIP4203eOuorO67NYDqZWdea4zA/wJSHr1mKzkS+9c+bjy+IO2IGZzDNdfquI9kpfRhvLmkDDNDJidON8JxJCykIHPVIFJpENJSO/L0/YIky+XKhhddXM72WymK3/JJkYlQzbfDdslCzxFr0yDteUOyvkZUv/BKphuy9XfmNFakpPm+40v6y33nHy5I9vDnevW02++X29n1/+N1zF4tVzm9/wU=);lineShape=1;strokeColor=default;" vertex="1" parent="1">
          <mxGeometry x="519.347507830749" y="346.1028540437626" width="10.55483598774049" height="5.240216191971967" as="geometry" />
        </mxCell>
        <mxCell id="UgK-DBmtqTshojyYZRiE-26" value="" style="shape=stencil(lVZdU+MwDPw1edXYlj/kZw7+BzMUmqHXMqVwx79HuVxC5STL8Oa62ljaXcnu+OZ1f/+y64J7vZxPz7s//cNl3/GvLoT+uN+d+4uuOr7t+ObxdN49nU9vx4fx98v9EDmsfp/ehy/8HXEcqcQBFdzHuJMoyb+NuzH+0B+v4mMlLybe607cBuREpRgAC0W/DSiFSrAZJXK8DaiZAhtASZQrAFQK9gRxFNI2wDtHzllEopDBEVqjpam6ibh1QCSxRehOctsAqRQbgBIHUpJAYpVWHjLgVVksqQVUoFwWqpYlpSEVAGByVog6n7kKSNJ6o3oMyBRt0ZKpAh0GgKVVPFXgb03pv9dm9xXyqOgwJTADmDwQTmkVq0NxxAEK16Q0KANSUmsUm1LWFgFFq/m4qcGTB25VM5eGpUgMhBsaKFuAEg1YWutRhqOszjXOAMGAPPX87D6snJqTbdX6CQHK6VTxjb8rHBtKSgO44mEdoUL5xRFgWublZMrTJFnviDo1zDVN4IQBkH4C4LoweCUBNAUhZ4tODs4+XyjZolnvRZQSZVtCwINJnWFvRS+wAr09bD5eJyWQedEMPsBb17VDCZtiMbjzdKWue6iln2Hytb14vuEykrPxjiJIXqnObTxqGc02lCaeUXyZJtVX/gy0ZU8pN/Sgpv/pm+37eF18PRAf+8NhfF9e/98+KHVrfIzy7Sc=);lineShape=1;strokeColor=default;" vertex="1" parent="1">
          <mxGeometry x="513.8568878726787" y="343.8486106871824" width="11.164772733160135" height="15.741628076507595" as="geometry" />
        </mxCell>
        <mxCell id="UgK-DBmtqTshojyYZRiE-27" value="" style="shape=stencil(rVbbbtswDP0avxISqQv13HX/UaDpYixLijS7/f3oGfZCeT7FgL05Ek9E8vCQHOTh7fj0ehg4vN2ul8+H7+Pz7TjIh4F5PB8P1/FmX4M8DvLwcrkePl0vX8/P8+/Xp8ly+vpy+Tb9w48Zp1RlAnH4OR8EKvH3wcfZ/DSe78yZSYOzj0Ix7ANEqTUH4ERS9gG5LNcLQJhK3gdUppA8IFPhfUBjatIDEgi6ZeLoAZUYuNTW6wWQmLgCgJKyBzRq6IVGtTpAbpQBDwboeCh2ggHJ86CBAo6BfVpVcQyFkifOEo2Kr6UliSugkSQAiIsDd4AKik/t2vNgTqoAQO2Ja4EUuKSboJWXk78Dcq9QK/jUMMATV1aF7LmU/QuZKSoMuvkXkkCmdS21VUC6SGpPotETZxLNqJYSJV8aUrDiylJqawzhPYl2fSlViqj42iathSJ4IQYTmE9TKbgxbcq1FqqAOQui+qiNfEZdoFLwbaMJFVB9JuHQCUIpIea4r++7PPwnRI2UtJc1qr+cKW7CRh3fBkI3hEwkqJdFk4RnoioF5BJpp+oMmUt9BNYFKprsC61rtSocKLEfD9Y0KiiMQNlTkPIyhnfsg7e3liHA/412JJAAKdit7zBTBmC8sVt88NLA/c7QiEG3kE07glMh97M2kgDnCzWfTKyXf1wK3zW3jz/758t4Os3r6/19v6/a0bzryuMv);lineShape=1;strokeColor=default;" vertex="1" parent="1">
          <mxGeometry x="513.1341592741887" y="346.1304957121604" width="25.56482472720677" height="5.681938546375022" as="geometry" />
        </mxCell>
        <mxCell id="UgK-DBmtqTshojyYZRiE-28" value="" style="shape=stencil(lVjbUhsxDP2avGpsy9dnSv+DGULJlBImpLe/r9yMl5XMnsBbsuuz1uXoWPKOb14f7172u+Bez6fj9/3vw/35ccdfdiEcnh/3p8NZfu34dsc3D8fT/tvp+PP5/vL/5a6v7L9+HH/1L/y54JKjFjsquL+XJ0yh/H/w9bL+6fC8Xu/JebW+UnVgvXw/qfU+kcOAzAoQAgW/DYiNmrYoNIoZAlzVLmfiBgB1fG8AYiDHAFCoNg3Iw6stQNOAxMTIBzHJaUAde24BsvYhi0kVAkpQgOLJg8QJoBUNqMQI0MbrhUoB+9CoGO5V8iBKQtakyd2YEtqBKesdvHOQruxsmFqjDLYIftTLAigUAMA7itU64eI2YDF4iVKhAjLtiU3eGoUA1mdyhhmVEtigS4TWAEk0ilGUGOkdah5FviUaSddPbeRBwaU8NGUBRGhSlpjrKFVHFQilVEvU3CtlePUuoCaKWvgKUwPUE/LPAAZ5aJ5ymACgflq0oiEA5EOnsjEpUgF5kGJxZodEDfkgap9tWGOCAEM+YSvcYRI+yXQE5Gt5MGcBeKgyUr9G7aUe4A7OnicCKCBxveK9BWREvmhVSQBI97rFyUapgXror7VJIjPoTBQAmwIStUc+OOtDkcxgH4KhRqIAlFWilCZ6e+R0sce0FFACJkmm01RxjKjB4xRfAVCmha1WlyJWDRH3KUoJ13QpNg8NlOjqjF2lOoK4yhbBABZd2BImS1cPUy3S16Yzy6MwfRZQeRz7CyBBFXjj2uqQQ9zIjZIuOTESdcY52uZe4obCmtLoFFbdT0SNbhqdwgJYOtn3+6syWvMFIAQG/A5x6vmkq0TtTyFvdnCwnZGgaxGQKkddqBfZ0hZVLALSL4Vsd8igHDhQKpPPwCT2dqLpnTTawY9m54O9uphkKxRPAwIwJl2ZN7rTmqx9osFRqhrQZyYUJZ6GLB5ceR8g3NPlIHOfQzskypoa0vqiI0smVdPCyROHTJo6MuFvAGIsgKSdvjJ/81Q/Vyb8DjANFrxC6C5oi/AVBU+HbhgT1NZ60455KuBoYOkf2axHKYjO6vZyyG9NP+YGxEHWydAaolmP4h/jGCs+uD5bRlyxp9iLgCv+NjuL4XjKsOfNlRLMl6wvOj7CB/z9z12JXV0vP97u3x4OT0+X67v1e3tfJ48ud318+w8=);lineShape=1;strokeColor=default;" vertex="1" parent="1">
          <mxGeometry x="345.349096007204" y="303.0427118557229" width="28.708075590507633" height="59.77982317975216" as="geometry" />
        </mxCell>
        <mxCell id="UgK-DBmtqTshojyYZRiE-29" value="" style="shape=stencil(lVjLUhsxEPwaX6ckjZ5nkvwHVZjgCgEKyOvv0xuXNtbI28Y3s6hXO+qenhnt9Obt4fZlvwvu7f31+dv+1+Hu/WGnn3YhHJ4e9q+Hd/za6eed3tw/v+6/vj7/eLo7/v1yu6xcfn1//rm84fcR57OkuKCC+3N80op4/+/JlyPg8fB0CkiS3AhQCY0AgqQ0AGoVVwnA9X+vAC+FAJpUP6wvUQILwYm2EYAnhQC85DHmjGNjIai0PAKc5HjNqaYskcVQpY68JSeV0BCi+BEQo6RAAFXiCNBKaVAc4sibxk79FsAcK55EckrqpY6AkKU4AlDRMAKCZML0DMBBZ6WAMIoP3BdCHAB+FF/rGbjFW1K7QWP5lsSVEZC7Gj8oVqRsZspwE2BlcotoZ0yGilubDQERkDOC9Fs165VEnIM909yle3Y9/KSOARcJREW1dDtZD8iLkoAbHNGQXPqW5wE4wFFFvvX83vA8cGByx0m6aovg+zFvBmGSDcnBdkhSRllA7IEYRgvd4k4A7JhqkzISEZAdhIiae/Ke7MAcpsYzQbNsQy1rJobAY4Cvq+UhsRiQjKNawbRjcvW2+CymR5iu2uV/ItdIPKkmywM8KbMYqpUGAJ5JA6WhXgWActL0ScT10BdpuiZoJJD307FyQDP54Gin1GZ5e1rTkaLZyJuLr6HPMTtweaMZNDxcSKAGeZsEupCipb/voyYwMX3BZmrozd2pkV0NIJ9Usm1xYd+sZc1lKhCJNpRoH0u2ACYNdIOm3fNr0p4v0sXazFKzSKuEotmSDVoJYMkvZwGV+ZK0aT3zsakkLtMQoW1qlPjrl7HBzBl0UsL3xPH92h9stVVtzOY1oC2KUzPrlcg6TaUqUVWn0OvSx1pbrLdNDO+dAVCj0UrNBRHYhkHpSBJXRldApa1qrLbV00BJjmWakrIEoiKwZlQUvQRGs5smPYz0bHCD4Y6JmZT2z5jDTCan0lPvvLLbNA8HavLIFDUdeqFMQ5pmlkTTHol9hdUO11sG16fLrU/y4w5oFpl9IegynhL6V2ova0O+AnK/qdgEmB0uMA1pBAtgkxViMPPw0kKQMoJ08WM+NF7Zlgl+ArDKBuLmHRrbAS5qiq3jRokuqrRpCwZw9hZgCeLC9U2wAM+G9KnrARGJ3VlhZB4zCFRXDrjyJvAyAD/+XzzeHx4fj/eWp/+3F5V4dLzk1M9/AQ==);lineShape=1;strokeColor=default;" vertex="1" parent="1">
          <mxGeometry x="352.6785733937784" y="177.6262359805595" width="31.089430926791465" height="67.567573251118" as="geometry" />
        </mxCell>
        <mxCell id="UgK-DBmtqTshojyYZRiE-30" value="" style="shape=stencil(lVZJcuMwDHyNrl0kwPWcSf6Rqjhj1XjslONsvx9oVEwCRoatm0yjia3RxMA3z9v7p81A7vl0PPzZvI0Pp+3Avwaicb/dHMeTfA18O/DN4+G4+X08vOwf5t9P95Pl9PX38Drd8D7jakSpE4rcx3ziM7z7f3I3A3bj/jsgw2kAFyQD4J2DcwpRPCiZLrhoQAbF84BSUbSHSkh0HpALXNKAhFzPAxKDswZUcDgPCBJxV9evOiwi2CNoRJXCGjFJoxJrQEQ06iqN7ZJ2qGw4gNc5l9iSWrR3fcq5gowuhNajT/vPKi/Hw8i6zamADV5QQtQRJfFpeAgeVYeUCNkoUSxtWK4ESIqB14RUEtivSVpI0E3PVNZiACqy9jD1zchBeFl0DkIMtjSDUMIP5hnTUwjcUVWobVRJahI7BSiNLMuNozZbV89nQtJluiABMj+1m09bZLyD7xSAms9lD31Ek04aES0KsUGltcJNqDqeC09DgNf2F96eiBC1vXi0mP1DtM3rfUTSrJMD43riRuJmT00+lhnETRqavUyBwYcQEHJnbzE0yoz091v2KYH6+614coLLK/ItoQnVdfUUUegfNHsVCYjr+LB62bkMkI+v3epx3O3m1ez7//0uJkfzHse3/wA=);lineShape=1;strokeColor=default;" vertex="1" parent="1">
          <mxGeometry x="313.7404477714772" y="183.94150154224042" width="4.519104457045614" height="12.037355085057015" as="geometry" />
        </mxCell>
        <mxCell id="UgK-DBmtqTshojyYZRiE-31" value="" style="shape=stencil(hVfLctswDPwaXzEgQFLkOU3/IzNxak9dO+M4ffx9oWoom5C0vckyVsRjsQB3+vRxeHnf74Q/btfL9/2v4+vtsNMvO5Hj+bC/Hm/2tNPnnT69Xa77b9fL5/l1+v3+MlqOTz8uP8cv/J5wypR5RAn/md4IU5R/b75OgNPx/ACQREPpAQMNAQCENHSAyFQZAJREOkA2lwDAYmDtAIMQ121ALJSSByiIISvV2LtUKcdtwBAp9lnKkWoCACXuT4iVygBdCn3QmmkAJyQhqT1AqaA6WIjZVxrFIJm0L5xY0IhLkXhBvpIhl2rvUsgUQJaMS9qfEAIpisE87rOUqSJ2D1T6uilkkgZKfQQMU6TWbt6eQdEi+5QyJGpU77+0/l63z42V9/wI8qd4uQhMCQRstFdX4gQzOjazo6nlAJDIQogOEEkAiSxHspC8hARpEYP1EhJVqzJXDygIwF6QpLRu3eKp9nJhhUNZspxkd4K0XtpqteAKZ4MB96aTvCAtqi2XnIKVJjhbeuS4F0nBWLCkSj8W5mZdt7fP9QFw0+R1eyuROHtBRBXK6vxBWrFqDzonGet8fgTNKPb2hRj4U6yczh9TS1CAKk0aZjFl2GiBF3I3Cg7Iaa1UnX4NTQ7WAUq5X18srAFU2f6W3iULC52QS2uTGZApgRPSvA7NALyNjEueF2E8RkKh2LdajXAuFK+pJeIDmvg87EcRcHVZZ1vxgLioZ5IJINJHm0pOgYO2bl0HJK/xGR8wLBY8uH2F2uK7LxYRLS5hsXy1om+pbx6cfULfT1SL84eRfaEgLl64qdW2Wzb7RAWJaWhaPu/wcHio+AFoJVfEoLnNH8cTGh/iFxHjCGzL4HcvazuUo/XLGkrS/2939nC/G74dT6fpavn4v79L2qvpHqrPfwE=);lineShape=1;strokeColor=default;" vertex="1" parent="1">
          <mxGeometry x="299.7638057752415" y="218.26873403993523" width="22.781860550845977" height="20.171598434740645" as="geometry" />
        </mxCell>
        <mxCell id="UgK-DBmtqTshojyYZRiE-32" value="" style="shape=stencil(fZbdcgIhDIWfZm8zQAg/17Z9j85U606tdqz9e/tmZ0c0uJ47xP0I5JwEBl59bp8/1kNwn6fj4W39M76ctgM/DCGM++36OJ50NPDjwKvN4bh+PR6+9i/z74/n6ctp9H74nlb4nbmSKZeJCu5vngmZ6jzzNAO7cX8FVKEsBuBKrgKg9oAE8gkCbLeUhEoEQKSUDZDLeWYRKIl8MEDRmHwfyBrBG6Amyu4+kDxxMoB3jhwgYu7TVAsVkFcWCs4CTBEoF4RctKeOxHIf8IXYpikHikAIf+MNUW94AGSSaoAoFIE3AlOyeWU+p2E5S9yfQZcQILVuQOwZdJNoS9Ls3wA5u2XZTIHECqeJ9kDpSaauRiNVcAY1QhdBzeLBli5WazpkSsBLV25uRaqWRyFawTQzRRIQYirJzq5atkBqLfouwqUxLBepthWb10vrWZY6UOAeyKCCtDV625mm9gmUC4Wc3VLJMMIE1BsA2FW9JraVlQB7n3c9oMKhCLEvIM1zBPZ25/umNQ1tVEC2G+fFCC8g398O2hNQuQlVu752DBfA+q0ptnqO5JFmeuIuo9DY7KjY71UxdJV4EntifPWorW++R/dC4t7V3DlIB5cHx2bc7eb3yvX//QNFp+bHDT/+Aw==);lineShape=1;strokeColor=default;" vertex="1" parent="1">
          <mxGeometry x="326.8679608424759" y="234.87531245851937" width="4.672539772115215" height="4.665236216357243" as="geometry" />
        </mxCell>
        <mxCell id="UgK-DBmtqTshojyYZRiE-33" value="" style="shape=stencil(lVbLctswDPwaXXdAgs9zmvxHZuLEmrp2xnHS9u8LVZUSIBamuck0liR2FyAGvnnZ3z/vhkgvl/Pp++7n+HDZD/xtiHE87nfn8SJfA98OfPN4Ou+ezqfX48P8+/l+ipy+fpzeph1+zbgQEWhCRfo9r0RGb39X7mbAYTx+ACRC04DQEcs2oCRE1gBCoW1AS2hZAQicnPiOwCY+h+34zghNxSeU6sQXZH0fIY27A2joQXMa0RyKAhFIk8rJVaF3VH1Eqkj+nagqQO4g74S8qLoASkOODiAga0BdhbyuWwUbgKw4V2oinE66ZpfXKs7UylVCcqxUi7VGCaiOVyXFGDWttLjlOoCR9QncEDxAAmt3x7xU4FYO/8y52jX5gI6cdNJgrz4ZydQDgmM90dl4dXX7lpGapsivHnFq1gx1JK+em3V2WDvIZrFpRlmaoGMjAXR9QmKwf6WqATkjeRyJRJrTklG8cl45XEtBqsnrqs0mLcbyWtKXAaXa2ml5yer60xOtUbufQ2A0Uwrke0+eJiOEaOl1vfopvrhmzSATH5eWczVeZPvEUfVSRtBtXnpqd+5PVoPSlx024s1DVWTF0YysZNIfu/cU2uliEt1pj4yq78/ybnmms/xIs/D2l0dS7y8KViffL89T/wGQj/fx7XE8HObp7+P/dtyTpXlU5Ns/);lineShape=1;strokeColor=default;" vertex="1" parent="1">
          <mxGeometry x="329.11010922695505" y="220.9208296528584" width="14.538755960880735" height="4.96713738907772" as="geometry" />
        </mxCell>
        <mxCell id="UgK-DBmtqTshojyYZRiE-34" value="" style="shape=stencil(jVbLctswDPwaXTEgQYLkOU3/IzNxak9dO+M4bfP3gaqRY1DSTm+0jCVeiyUGeXjbP73uhshv18v55+7P4fm6H+TbEOPhtN9dDlc7DfI4yMPL+bL7cTm/n56n369Po+V4+nX+Pd7wd8LVQoVHVOSP6UvKxOHfl+8T4Hg43QE0URYHyJk0bwMkkgYHaELC24BYKCUPKFQjAARK0QMatbYNCJlC7QG5bAMaiXp7nZNatbcaNW9/C3E9oP7+ajeAmjKxb1rRuY0b9urv10oFxC8UfX0Ux1/m6t1xAtUzCLEvUA5UUMcaxewBTKkCTmRKsvCgIGWmposcUI0yRe2LJAIAhRr3XVBQVak9jQqmnXmICx4llHQi7kbNcgDEs0mIHbOVMvBgVErLUQMeguXgQwp8o/s6IlDsBMb0AsSkxJ4aoyABtsY+oqrUAPeYor+/NHi/2Xv5KtaEBOPpeCRUAI/yHO2N2YUE0Mjsy8Ie6W8l9sMpgRgFFOdB+eoxKaio8V58iQIFkEHlXpAwhWxMWujsIxjl2ohrF08B8bdI1Sec8HuTezGq85u4bl97wTaFDWAEbAjVtyyYBzSWvHhzLAe0KJgL6QANCqpNrXqAyZOirNP8yt8AjQJos4mbeholW05Qn1e3I8Ds/1in7PC1jL0cjsdpl7v/v1/e7NO0+MnjJw==);lineShape=1;strokeColor=default;" vertex="1" parent="1">
          <mxGeometry x="336.00081554241" y="217.03060812775652" width="10.97326380736422" height="8.53880856239266" as="geometry" />
        </mxCell>
        <mxCell id="UgK-DBmtqTshojyYZRiE-35" value="" style="shape=stencil(lVbZbhsxDPyafR1Iog7yOU3/I0Cc2qhrB47T4+9Ld6GNKXtZ5E1ecyQeMyQnenjbPr1uphTezqfj982v3fN5O9GXKaXdYbs57c56muhxooeX42nz7XR8PzzPv1+fLpaX04/jz8sNv2ccNcRyQaXwZ/4iKPzvw9fZfr87XNnniFqNfWLk4AAacjSAnJDqOqBGEBlAqWiyDpCMxAbQ1KXmABgxGQBHsOOSCKRZQAGTC6g2q6xXFAegZbAxCPlBJ7CNQSokrwO4Idi0qpPBeYEDsn0hhoDglLoRKo9PeGSqDcVyQ/PATuVqQrGFkILg5LUIyNJVYg/rPoCRBm60fsXaCwP7mJCcvGoMQ16bssUhk2aJbJaaCsJJq9YhZwsovfhrpR7Y1zKKEzRXcBhf8NKqdK2WfU1r7wFar+uS1tA1tSa5IhaQ3S5wxeYFwf2Otb4xcEMWPq51pjw01wLxNKeSHBSkLjmSY83rIAgBO21A6yThBuBJTpDrjUseICNY9mlnik4MF0D5DIAK6sC+2hvJ/VLfaLQujL8PiH2mLUOruYIoKJbeFCEOvfV5W7ZIrkM3VI2ha3zFXoaWgeaIJ/Xxt4xcJKfEBc3qgPoScV8GIEuI6HJaU5GtkjVWp3vF1kfrh703pjTaPNon5/6k3ZYG/116BhQbb3KnING4UvnNl24k7E/+z654/7fXw8c++bLb7+d19Pr/cf/UT/PuSo9/AQ==);lineShape=1;strokeColor=default;" vertex="1" parent="1">
          <mxGeometry x="333.82845246415036" y="212.82250278751735" width="11.638142654538797" height="19.13276939403363" as="geometry" />
        </mxCell>
        <mxCell id="UgK-DBmtqTshojyYZRiE-36" value="" style="shape=stencil(lVbRbtswDPwavxKSaInUc9f9R4GmS7AsKdJsa/9+9AxppRrf0DdZ4llH8khx4ruX/cPzbkrh5Xo5f9/9Pjxe9xN/mVI6nPa7y+Fqq4nvJ757Ol923y7nn6fH9fv5YbFcVj/Ov5Y/vK64SjovoBTe1o0UKce/O19X++Ph9M6eM3F0gJiIZRuQM4kHFJK0bS+BYvaMqAJCqhTZ2QcKYdu+RlL1DlAtwD5T8nyUAuBfhWrw/xfKDACV8pAC2wEexNA9bIg5UVF4RfJXWFZKhU6wD2oRiihKM83iAJJbHG4DAlUPUNsBlNQIVA+wTCIAt7B3SkoZZM4IcPGASAlJtSuhRymQgChJacc9cdoyswnwxcMzVKsIqQ+rlQ9jp6P3IUYqgJKFNfmwzhSAvLWMjCzMWBglD/YK+JjyBl1kyqgW5IPD5gC6oI4AuwGF1ADVdxjW1kO2AMXfkGMrp9sAE56/oZjYUT3n1tS7tLmJ/TYgjVGVSoJkoTR7aWuiAHz4NCDLKLwFgJ4qbcLsgNJSebuxJhIPWFIJtB1DI9C1FPDrI2OLMTkKSJxVu2/clWkGLqTWErvLuG/Hsc9bmhlINbTTbh+gUj+8VCXCnIVxurBKyEB2cXycl5cQ/N8yPJTmDKeRmdTzsdcfxcc06v1NTIrq7JPj1//tbfFv1ns6HI/rqPj+fJwNbWudK/n+Dw==);lineShape=1;strokeColor=default;" vertex="1" parent="1">
          <mxGeometry x="330.0193240138783" y="216.9579678296642" width="17.552824863338856" height="5.010053165324734" as="geometry" />
        </mxCell>
        <mxCell id="UgK-DBmtqTshojyYZRiE-37" value="" style="shape=stencil(rVfbbtswDP0avxISqetz1/1HgaZLsCwp0nSXvx81Q5kpx2cbsDfH0bFE6lykSR7e9k+vu4nd2/Vy/rz7dni+7if5MDEfTvvd5XDVp0keJ3l4OV92ny7n99Pz/Pv1qY1sT1/OX9sXvs+4GKnEhmL3Y34jlaT+evNxBhwPpwVA/y7BAIKnIgDAJGIAMRCDGaIj5wwgZQoAkBRga9CqPFhSXNWgVaUEAFqDXZJ4CnEbEFJfcQdwoQpq0CbWYgFaQ4H7wLat7CgEACgUbdE+EiNApZotwJEHgCAktoYIuxoKBdtVxsQIFNmMdyQZ8MKTq8N478B4pZn9vqfot8dnppKsFCiAenOiYr9fKAGaZqWMt+sRioATCii2YK9vUAWJst1iFsqoBKY80DT3RW71VGzN4qBdqJgHIaiBMENWBNsl1WYFAKWdWADfmL7J64GnCe5DU86gTe5U3NSmBfjU27Cpfks97ykjf9EFWPXnbppbBhaHbSAGPVKHHLSMtzmuqHpz/fu0iKO3uC6+/zK+qtuupMMA4N0qpiT0HtyfQjNmsEfsX7V0+1wEYQKsqKodu8lF4x0sKeduiB1QMbNjIrZRu+jDJlNtY7XVyGKaSdspilBA1OsmeutSheNX+9YOHEA6q6BVf4nAX5QGPARtgbmg8+eV+gUEbTtA5RHgUXLm3vIFICPbdv20cgPkLtj7ABmTxCvdQQ0q0IGrmrYFUK8lyRA9OG5TGTdaPQ8deNKqS+KgSaY0KlqzKqMZwngCkAiPVGl98Mx/OtoO5GvZgtTzrxeAvwDow+/7xsvheJyvK8v/x/uJvprvNvL4Ew==);lineShape=1;strokeColor=default;" vertex="1" parent="1">
          <mxGeometry x="309.98588909956766" y="293.7260423943044" width="15.039143906182062" height="18.926973299041265" as="geometry" />
        </mxCell>
        <mxCell id="UgK-DBmtqTshojyYZRiE-38" value="" style="shape=stencil(fZbdcgIhDIWfZm8zQAg/17Z9j85U606tdqz9e/tmZ0c0uJ47xP0I5JwEBl59bp8/1kNwn6fj4W39M76ctgM/DCGM++36OJ50NPDjwKvN4bh+PR6+9i/z74/n6ctp9H74nlb4nbmSKZeJCu5vngmZ6jzzNAO7cX8FVKEsBuBKrgKg9oAE8gkCbLeUhEoEQKSUDZDLeWYRKIl8MEDRmHwfyBrBG6Amyu4+kDxxMoB3jhwgYu7TVAsVkFcWCs4CTBEoF4RctKeOxHIf8IXYpikHikAIf+MNUW94AGSSaoAoFIE3AlOyeWU+p2E5S9yfQZcQILVuQOwZdJNoS9Ls3wA5u2XZTIHECqeJ9kDpSaauRiNVcAY1QhdBzeLBli5WazpkSsBLV25uRaqWRyFawTQzRRIQYirJzq5atkBqLfouwqUxLBepthWb10vrWZY6UOAeyKCCtDV625mm9gmUC4Wc3VLJMMIE1BsA2FW9JraVlQB7n3c9oMKhCLEvIM1zBPZ25/umNQ1tVEC2G+fFCC8g398O2hNQuQlVu752DBfA+q0ptnqO5JFmeuIuo9DY7KjY71UxdJV4EntifPWorW++R/dC4t7V3DlIB5cHx2bc7eb3yvX//QNFp+bHDT/+Aw==);lineShape=1;strokeColor=default;" vertex="1" parent="1">
          <mxGeometry x="329.8679608424759" y="308.8753124585194" width="4.672539772115215" height="4.665236216357243" as="geometry" />
        </mxCell>
        <mxCell id="UgK-DBmtqTshojyYZRiE-39" value="" style="shape=stencil(rVbLctswDPwaXTHgAyJ4TtP/yEyc2lPXzjhO2/x9oGqoGIy0ufQmU1gLuwCWGNLdy/7heTdEfrlezj93fw6P1/2Qvg0xHk773eVwtach3Q/p7ul82f24nF9Pj/Pv54cpcnr6df49/cPfGVdJZQJFfpsPmJj/HXyfw4+H0014LJRHF59I03Z8ZpLg4kfSuB0vtY8PiaJsA7TSmDwgU9ZtQI1UPYOAU6pCNTuAcU4VALRlvGiUGqt1gHHwgDxSwIBaHcB00wIB0XMoxmEEAKtzcQAVCugLmVQdwE44A0CgEj2gEoMvqFLKPaAAlSxj9ipNpUSASIk9aSUGKilT9CqVsVVmFVCsDt042PwAlcqnwokNKOLAvUrJUgITaqSzTymaSmCATNbYTZw23bYKJ15WG9ECANYaXS8FIQEmYHXljgNTQd1aSHzhJiPEE9e1Rl76dxUQeDHSpXICnWxyga43FDaT+UzwTqYB+4w0o1sGInzllepTMuGQz5gbd7Zxo8N/Qkih0LEQ6JapUvANqxlfcmNrnmWsLUvUsBS8fxeTCVRu7PvbbCMDBjYuvtAltpN1AlS9QqNpBlwm9Jf6dJ2AvuC+ZhJg/p9GIcfmg1vx3rhThFc091eJ3dAF5G/+0q0A0raI9Q6i7Our0LSlrQcfO1JBlwKJz4ZheO2Tx+Py5YJnDx/L4dPheJx3y9v3/TJpR/Mimu7fAQ==);lineShape=1;strokeColor=default;" vertex="1" parent="1">
          <mxGeometry x="331.9064672460938" y="299.90054059989666" width="22.033488383736767" height="5.3907470401413775" as="geometry" />
        </mxCell>
        <mxCell id="UgK-DBmtqTshojyYZRiE-40" value="" style="shape=stencil(lVbZbuMwDPwavxKUqPO5x38UaLoxNk2KNN3j75eGYTdk48H2zXE4Fmc0Q2mQu/f909tuiPx+OZ9+7n6Pz5f9IPdDjONxvzuPF30a5GGQu5fTeffjfPo4Ps+/356myunp9fRr+sKfGdcLtTahIv+d34RKdX7zOAMO4/EKUBtJMADJJABQItVsADlSy9uApA2IAZROJW4DIlOqBjCxqtsApSh2hd6oMwAIFQfo1GUb0D1nrUecCwX2DRUgqhAXzziDfpi6q1dGCdWz64dJgEBMsZv6pjtQgKDUrIma9tOBJxaLrfWBQgAu9frXTgK+HwJlK5D6vAJBQ6bEfoWAPNeoOYkYUlaNSvYaIc5qCvmyCQGtIIuHV4AGDa8Qo7cRA1soBx+0QgxWUJWSM6rOG5D9kJbgXiWtoigH4mQHHjMkUSlWvwKSVVW129B13ICsqfVsQz1RAU5iCjYLPVDCWbaStrp0uNGP+35L0KhCyZpCs9ng7Ppe/TRM7QZkHS7AEylRtYwTLz68PX2VsgVMmwIAU9YtByUF6pWhOzTDMqBu14sfFkwZSKRBr+zqkaWnnH+pR8dZ9NOO4fGkDu4uZPB81YRwc3oW1E/zfPPikdv1fXHw6jkY4auR8DklqIKQ9XVyrgBZzsQtCtmOdz1SoKbfvan9B0AfPi+GL+PhMN8rr//3F0l9NV9C5eEf);lineShape=1;strokeColor=default;" vertex="1" parent="1">
          <mxGeometry x="338.1460333181517" y="292.1211972907445" width="15.743617547263739" height="17.717559000713436" as="geometry" />
        </mxCell>
        <mxCell id="UgK-DBmtqTshojyYZRiE-41" value="" style="shape=stencil(jVZdU+MwDPw1edXYli3bzxz8D2Yo1wy9limFO/49ymXyIYfs8Ja6Xsu7Wsnq+O7t+Ph66IJ7u10vL4e//dPt2PGvLoT+fDxc+5t+dXzf8d3z5Xr4fb28n5/G36+Pw87h68/lYzjh34hjIYkDKrjPccU7yv7/ysMIOPXnFSA6imwAIVPI+4DkiZ0BxExS9gGSyCcDED1C9gGVibMB5EgFRKiZklhAIUkAUClbQGHyEQOsrCVTASoNVwoGUAMxiqCkvQUIebcPKBvStVAGpIubRFys4ciBEJmp2swNOjBI9ZZ1pgpkkkDB6lojVWDXVCavzQClBVgndbPVtQgFwCHNN54BnhIi7ajagsh5YrVXEA0HFboEkAdPxXLQFQEqLfafAaoSKLmSKNZNBGTX+QJrDqioZVPUeWokeyUXtnmo+4CVm1ephiFKy1rNhNy3mHNtV6RrbWXSmA5EGPpQU9UVVnWWTQVVqkAmqd/1DeA+0cTaF0Jz6cCVBkDcAIBKMVCyBVEiCUhcUPfZPiP67oE+U9rWF9XwYD+357OHDBx5u99HikCijVO9pwhyoLZsnh94fGg7UoIZTu1ryBRR2RDb5oKbkdfT7PEOXt7nqZEs+9ErpWxDbfYHMC0EodSID/ezm96LeUKiCt4D5rZxJThbcJrkmDsjZVDA3494IL0/mAn1Y5kon/vTaRxI1/+3E6gujdMr338B);lineShape=1;strokeColor=default;" vertex="1" parent="1">
          <mxGeometry x="339.8268394687575" y="294.8183084864761" width="11.82331882859853" height="17.340130074035642" as="geometry" />
        </mxCell>
        <mxCell id="UgK-DBmtqTshojyYZRiE-42" value="" style="shape=stencil(lVbLbuMwDPwaXweSqAd1brv/UaDpxmiaFGn29fdLr6FsqLp0DeSgyBqRHJIjDnT3vn982w3BvV/Op5fdr/Hpsh/ofghhPO535/Eiq4EeBrp7Pp1338+nH8en+f/b43RyWr2efk43/J5xNUEg08/9mXc8oaZ/O99mwGE83gIyXFEACnDZADBKVYCUUd3nAO8cnFMIjojVMFFArAEV0QhCPrO2UAlsWCjcYrwCxKZhIRNI01TFJYOmWBA0TTc8LCLIN1KuJhg1GMQWZNKADCIjavgu6IBkZQ5ex8wFbNzv+pA5gL3BEbKu1VJQDU6llItOc6GW+EVAyEjao+JQrKz5xngD5NpIWwQkhndbAOJxpC0useTUfwjaYFUkoOueidZiACqKtrCSN6lL1jGsFIbUGcctlScOUFeqdmlnbvd9sXlSQN7YnxlZ07QiAdI/tetPEZloKSV8pwC2jIXeo0knDQOLQswbzxv+eATtz8rTQD1BK29PRNGVvfK45b45heFkxFub/Fw7B9ES4NwLamyKvJyuCNLqElqrLtNDrW/beWfraURK3XmrolNqr+rXzmeZFeIGf0rqe0ziNcqHpdrTBj6r6/2x8yXdVD/WgzWIbJ6m1gGy+D+8PY+Hwzz73X7vhz3ZmgdFevgL);lineShape=1;strokeColor=default;" vertex="1" parent="1">
          <mxGeometry x="323.65755522492805" y="342.8971508482389" width="4.684889550143907" height="15.078231917808125" as="geometry" />
        </mxCell>
        <mxCell id="UgK-DBmtqTshojyYZRiE-43" value="" style="shape=stencil(hVbZbuMwDPwavxK6SInPPf6jQNONsWlSpOkef780DHkt2Zm+2TJHMjkzFIf48Hl8+TgMwX3erpefh9/j6+04xMchhPF8PFzHmz0N8WmID2+X6+HH9fJ1fp3fP16myOnp/fJr2uHPjEuZtEyo4P7OK5nCvPA8x5/G8yqelXxu4oOSpvsAUSq+AbCrW+wCiqMUGoAIKd8HaKHMDaBkKu4+wDtHzjUIdZQFH9H+k8a6sg9gcu0/qVBEWWv9vABKrcM+IFDoAEoCmMuJuE16VYd96oTK5ogImBBjVlsAZoKZfGoBTOwBwLKWFhAgEeypdOJQDIik7QnFygAEzqXWZAEkikBMYkS0ljMuGZQ1e9K2rMUTKwBorfoKIIAHM0xwm19Choi9SaekgfpMCFk3ZQWGMKmVjgfFHlVKcSMN1DeEuDO1iQ8wrZ5SZ2qTN/Jo6jvTZCCQQ87k22b5rUe1V9/UBkBdZesgazTIo1Kls25lyBChtutVs0SdaQLIBgD0HXlzaTkopiD1UlsuITsBEOGtf7faiAYAYnLVwQtxvvbnO/H9DUQuovDODFJv1f0CkWvTNSGC3c0IrXOMECBrS811KqUEcvXSS86ueKAH205zF488EBYXruIBuUZl6vdH3MZCnLt8UWNJob9zIpypkvTDAsMJaXdmA3b5fsazh/8D4tt4Os3z5fp7P1Da0jyMxqd/);lineShape=1;strokeColor=default;" vertex="1" parent="1">
          <mxGeometry x="322.0970995433406" y="421.1049292194373" width="7.842373250698756" height="20.430179634939122" as="geometry" />
        </mxCell>
        <mxCell id="UgK-DBmtqTshojyYZRiE-44" value="" style="shape=stencil(lVfLctswDPwaXTEkQfBxTtP/yEyc2lM3zjhOH39fqK4UAZK3zU22uCSA3QWoge9e9w8vuyGF18v59HX34/B42Q/8aUjp8LzfnQ8XfRr4fuC7p9N59+V8ent+vP5+eRhXjk/fTt/HHX5ecczEZUSl8OvvP5m4/fnn8xVwPDwvAClTdYCKAZFyNgAJJBWf0A2gJKpyG6ABxGoBjTI4IevrZgAVh1QiJXtCTdT5NuB9v0UOOQIAU0kGkDO1AkJqFG2VRir7bYAkKhaQ+pTVrSqJJS7NZ24DMvVoAUI1AECiaHlIiUIGgEBFDCDWqW63ANnyEBM1lHSkYuXdiNEBmWKwvFFG6ysJ24BIEGvz62l9oAiEJ0JN/Hq0f6fWXDwVyY4picu3APcXoRJcPQtguBSv0qgngoIqIFvRqSQ6ykDby0p0DNqLmr87gEDzi0rG5vwPEYmKyJp/tCZy2oo1PaEi2RUKVnZJC418oP3NGidpe8HGCY6HThGUVa3JTnlqHUCcnuCq1Ccmt9czRWtlwb2irGijDLqXBN+BA4xfWXaDMFBA++t6/sD62qnY9ZUCiKer6hxjjQJgLIY5gHnmqBMAoncKbqp1aM5ephk2z82MT0g+idqoA+s09izoFh2VdaXTjnWn9q9uSAXMnCq1W4TWQUCXHEe9s0Ke7LdNnUrB2rnVaVhvh0TRVqnqNQ7wsFKGDroOMtCLgbtblGlwbSfQ/R0vFkro2jlreTFIUIvkME2BBYBBiThNHXQBEDAX9GbtZ22ebt/bgOKHeRR8E24TScv7EQpJe8aqa8P7UfDzf5yeGMCOaexoDanZtq19LANHa9IeoFugpKt3NEcMEBJbpdGAQHwf/qr6D4A+vH/EPR2Ox+s34PK9/+jTv64fjHz/Gw==);lineShape=1;strokeColor=default;" vertex="1" parent="1">
          <mxGeometry x="486.9307008345113" y="492.0205762815938" width="23.022165915612504" height="20.704034785011572" as="geometry" />
        </mxCell>
        <mxCell id="UgK-DBmtqTshojyYZRiE-45" value="" style="shape=stencil(fZbdcgIhDIWfZm8zQAg/17Z9j85U606tdqz9e/tmZ0c0uJ47xP0I5JwEBl59bp8/1kNwn6fj4W39M76ctgM/DCGM++36OJ50NPDjwKvN4bh+PR6+9i/z74/n6ctp9H74nlb4nbmSKZeJCu5vngmZ6jzzNAO7cX8FVKEsBuBKrgKg9oAE8gkCbLeUhEoEQKSUDZDLeWYRKIl8MEDRmHwfyBrBG6Amyu4+kDxxMoB3jhwgYu7TVAsVkFcWCs4CTBEoF4RctKeOxHIf8IXYpikHikAIf+MNUW94AGSSaoAoFIE3AlOyeWU+p2E5S9yfQZcQILVuQOwZdJNoS9Ls3wA5u2XZTIHECqeJ9kDpSaauRiNVcAY1QhdBzeLBli5WazpkSsBLV25uRaqWRyFawTQzRRIQYirJzq5atkBqLfouwqUxLBepthWb10vrWZY6UOAeyKCCtDV625mm9gmUC4Wc3VLJMMIE1BsA2FW9JraVlQB7n3c9oMKhCLEvIM1zBPZ25/umNQ1tVEC2G+fFCC8g398O2hNQuQlVu752DBfA+q0ptnqO5JFmeuIuo9DY7KjY71UxdJV4EntifPWorW++R/dC4t7V3DlIB5cHx2bc7eb3yvX//QNFp+bHDT/+Aw==);lineShape=1;strokeColor=default;" vertex="1" parent="1">
          <mxGeometry x="511.8679608424759" y="504.8753124585194" width="4.672539772115215" height="4.665236216357243" as="geometry" />
        </mxCell>
        <mxCell id="UgK-DBmtqTshojyYZRiE-46" value="" style="shape=stencil(lVbLctswDPwaXXcIgg/wnKb/kZk4taaunXGcPv6+UDVSBVZGJzdZ2jWJ3QXIgR/ejk+vhyGGt9v18vXwY3y+HQf+NMQ4no+H63jTp4EfB354uVwPX66X9/Pz/Pv1aUJOT98u36d/+DnzGkKaSDH8ml9wRJE/bz7P+NN43uCZwNUQYkCu9wmZEYohUATTfYJUpGYIASHcxzcC5Q5fkoNPyBafINHBV3DqCyCP0BCjlYhQHYkorBVuXKjFXaJYQmI0dgiCYIvOCeQRMrItokREp4imn8USKrLns6DYYJQGdoyW3NegKyRHJSEI9TWQU0NdN7CqpLI63VDrYuzGB89qJbBVSZ3OzSEIyBI0TMWTVbNkCURozgoSIV0NqE4ypPRGhyWM+/iGljp88NqHkex+ePF9H1+QrWnqolOvtkK1qSAB+83WCTRNTX8AiE12Cn7vyDJz19wFNMdkrTnZFbKu6YmkonbtXNz+V9eka+cG8nKnhPYRQs6odktV/KMng9kQpig6RZMGxxqnziQnGhSQbJQ2o3m/PVGtSmpldg6f3J8lOmfJ2REjdviwnHb7FSzDZJWIl7Tv4kN/1lZf0n8OqiKIjj66227G+82vse+Oqej+v14lbIZSXublLj4h2t7ntgzkXXzp9dEQusfmB69T/8frw9+728t4Os1Xv+33/q6nr+Z7Ij/+Bg==);lineShape=1;strokeColor=default;" vertex="1" parent="1">
          <mxGeometry x="513.0763814146121" y="496.25112724203905" width="17.405264714447185" height="5.672918100982088" as="geometry" />
        </mxCell>
        <mxCell id="UgK-DBmtqTshojyYZRiE-47" value="" style="shape=stencil(lVbLctswDPwaXTEEwRfOafofmYlTa+raGcdpm78PVI1cg7J22hsl7YoAFgtykIe3/dPrbojh7XI+fd/9Gp8v+0G+DDGOx/3uPF5sNcjjIA8vp/Pu2/n0fnyen1+fJuS0+nH6Of3h98zTRC1NrBg+5jdRSMqfN19nwmE83hCKfY6OkAqJbBNSopwdoTRKeZsQlbg4ggqxAkIh9jlooRwBIVIIntCogaS5EjdPUFIQEsc7hNq2CXUJ+CaiCIokVNTjM+UKAqLQ4a0GvI0PfYVaJU0In8XjhVoAElBhj7cdgWSFgm+iWrAAgVL1hEwBtClnSj6imkhAxpaylNUOKOVEVVc5oB2uLXAlWNehpliFZCpUkLQR1LedyYyMYN5snTeZFOxgjR3XjYqqJJQ651gZQKeyWde33mQ1ZGbpCRwCVE7vjAsF+NVMneYRNGfr/i8UAT4s4/CqmsIRbHjvhZaXEbsRT+3aiLEEVPMKD8zMStknkGWx6/2C2rjwFbK+qkCBGkl9yrIMqPv41RHCVIDTqvYlCvBMMx8W6fCo48yGmTs8Gkbmwu68YUogXzv2k3T1iQhfKfh6ZipA4ckgvp4NCjwdp50neZF8Y76vTii+2m5rC+62aNj1lcTX1ERAtv/vu9Q/EGzx9+r2Mh4O883v9nt/1bNX8zVRHj8B);lineShape=1;strokeColor=default;" vertex="1" parent="1">
          <mxGeometry x="518.6456547265725" y="491.19587720043955" width="11.148988359943132" height="13.417792890933242" as="geometry" />
        </mxCell>
        <mxCell id="UgK-DBmtqTshojyYZRiE-48" value="" style="shape=stencil(lZbZctswDEW/Rq93uJN4TtP/yEycWlPXzjju9veFqlI1WPt28ibLOCKWC4BTfHjbP73upuDeLufT5933+fmyn+KHKYT5uN+d54s+TfFxig8vp/Pu0/n09fi8/n59WiyXpy+nb8sXfqxccHBuoYL7+ecNQvv94uNqf5iPV/axQLyx9wkx3gdyRBB7QEUhJxRBDQZIAVHuA1LgkgGqR3IEaCjFAhmtEEAg2QDNwzGXNIZmgYKcqEveuiQehQEZoVpAY8gE2HKyAQ2VnKAei3XJu00st4mAZCunecgEqA1hiLp2tdwGEpoVk0QUT4CAYoHW0IhcVTptqFxEqvSEbLWhUTkGpO7xBmiLsBgqmi21tgjTt4pTbAylwpGgF3FabZSCyMTkIHU8ITG5pnFsVAdPsqRCEKslzVtggPSpsgGCSLJ0peat1Il2hDZMs6XWPLhAJ1Mc9J2QyeyTgDp0de2j53blGpKNehk9JE2q5iGvCrDZp1nMg0uNyzVD3Bi0kKDfDehK8YNcW3fy9tLSjWMLlxPVty7BYfYlHcekg0pfmtuSE3hiH1GHpVho2XQq2RW3fIGkyCFb//VNJEX7pxV8oUJ1XQKbfegR3fHfDyKi3R/QrEhVIqQxcx+43TzSUVHH5HtE0sXe9Y3R7R1tAK8tJoM9W5u+wvvBvhL7917Z/m+vD3/vhy/z4bBeL6//H++T+mq9i8bHXw==);lineShape=1;strokeColor=default;" vertex="1" parent="1">
          <mxGeometry x="511.9766961281209" y="490.97788834803055" width="15.403067915304746" height="12.87835435525858" as="geometry" />
        </mxCell>
        <mxCell id="UgK-DBmtqTshojyYZRiE-49" value="" style="shape=stencil(lVdJchsxDHyNriiA4Hp2nH+4ynKkiiK5ZDnL74OJwomI0XTFt1nYBLE0Gtzow9vu6XW7Cfx2OZ++bn/sny+7jX7ahLA/7rbn/cWeNvq40YeX03n75Xx6Pz5f31+fppXT07fT92mHn1ecVlKZUIF/Xb+EQKX9+fL5CjjsjzeA0CikAaBMRQHA9osDICppBQChpgMgmc0MAJlyGQAlUAUWIlOqIyBBH5JZYA/gsA7IjVoeAWYTWMhCeQSYzSjAh7gIa+xbrCUutjFx2r/cBUjqJ74pjQx8kLlyOkAapQQAQjImzmwW4IMw1bH4bIuMLVSXBxgkicSjC5EExaiQhvFAlEFd2G8Z92cKIMsh+f2ZBO2/YKeQxvX1Gii5ooAJ0EituXgKOL9mkpFplhFGBjKxcyD1LdZOlF0GGjF2mUeAlXUAgFApjUyzooig6Oy3BySKqEVy/30DYOC05F71M8C4DHwQ9Xk2m3+b5hpxkqNmwUcyao5CYjYZdQvpKtABlRqislJwsgBVwWIkLkakaH3zrYJ7Gu8nTalFt54ZrC+eOgyFVhcZMFED8fzo+pioOuIY90GGU6U4BshCwCBjxbg8loRGGNKaezOZu6/1S1TWPMd8LorStf0uotm8M1ZRqdCJWnzHrq2L0H2v1Ytay72y1uLaHKBRAZVkmROXOca1N41ozkSljNgcvdcNC8ncQm9GMLR+kbfMcKDi3tPnysi9o9332K/XBIXKVKY6oUpYFZJPc+n0WKO/i2iGB5rGtfFAdh7cLppjAmy/RkU3WdioAQTBhNnNzJkCWm+quZi88EwuY8YaHJitM7iKM0GBrJHe3WaADXvAgwngLFgM0EguC15WyHxtXfFuVLmhJH/0tvYfAHv4dzl82R8O17vl7X9/mbRP14uoPv4G);lineShape=1;strokeColor=default;" vertex="1" parent="1">
          <mxGeometry x="69.03921670041689" y="207.68137972019906" width="21.93124357278475" height="21.94151844653595" as="geometry" />
        </mxCell>
        <mxCell id="UgK-DBmtqTshojyYZRiE-50" value="" style="shape=stencil(fZbdcgIhDIWfZm8zQAg/17Z9j85U606tdqz9e/tmZ0c0uJ47xP0I5JwEBl59bp8/1kNwn6fj4W39M76ctgM/DCGM++36OJ50NPDjwKvN4bh+PR6+9i/z74/n6ctp9H74nlb4nbmSKZeJCu5vngmZ6jzzNAO7cX8FVKEsBuBKrgKg9oAE8gkCbLeUhEoEQKSUDZDLeWYRKIl8MEDRmHwfyBrBG6Amyu4+kDxxMoB3jhwgYu7TVAsVkFcWCs4CTBEoF4RctKeOxHIf8IXYpikHikAIf+MNUW94AGSSaoAoFIE3AlOyeWU+p2E5S9yfQZcQILVuQOwZdJNoS9Ls3wA5u2XZTIHECqeJ9kDpSaauRiNVcAY1QhdBzeLBli5WazpkSsBLV25uRaqWRyFawTQzRRIQYirJzq5atkBqLfouwqUxLBepthWb10vrWZY6UOAeyKCCtDV625mm9gmUC4Wc3VLJMMIE1BsA2FW9JraVlQB7n3c9oMKhCLEvIM1zBPZ25/umNQ1tVEC2G+fFCC8g398O2hNQuQlVu752DBfA+q0ptnqO5JFmeuIuo9DY7KjY71UxdJV4EntifPWorW++R/dC4t7V3DlIB5cHx2bc7eb3yvX//QNFp+bHDT/+Aw==);lineShape=1;strokeColor=default;" vertex="1" parent="1">
          <mxGeometry x="87.86796084247567" y="223.87531245851915" width="4.672539772115556" height="4.665236216357698" as="geometry" />
        </mxCell>
        <mxCell id="UgK-DBmtqTshojyYZRiE-51" value="" style="shape=stencil(fZbdcgIhDIWfZm8zQAg/17Z9j85U606tdqz9e/tmZ0c0uJ47xP0I5JwEBl59bp8/1kNwn6fj4W39M76ctgM/DCGM++36OJ50NPDjwKvN4bh+PR6+9i/z74/n6ctp9H74nlb4nbmSKZeJCu5vngmZ6jzzNAO7cX8FVKEsBuBKrgKg9oAE8gkCbLeUhEoEQKSUDZDLeWYRKIl8MEDRmHwfyBrBG6Amyu4+kDxxMoB3jhwgYu7TVAsVkFcWCs4CTBEoF4RctKeOxHIf8IXYpikHikAIf+MNUW94AGSSaoAoFIE3AlOyeWU+p2E5S9yfQZcQILVuQOwZdJNoS9Ls3wA5u2XZTIHECqeJ9kDpSaauRiNVcAY1QhdBzeLBli5WazpkSsBLV25uRaqWRyFawTQzRRIQYirJzq5atkBqLfouwqUxLBepthWb10vrWZY6UOAeyKCCtDV625mm9gmUC4Wc3VLJMMIE1BsA2FW9JraVlQB7n3c9oMKhCLEvIM1zBPZ25/umNQ1tVEC2G+fFCC8g398O2hNQuQlVu752DBfA+q0ptnqO5JFmeuIuo9DY7KjY71UxdJV4EntifPWorW++R/dC4t7V3DlIB5cHx2bc7eb3yvX//QNFp+bHDT/+Aw==);lineShape=1;strokeColor=default;" vertex="1" parent="1">
          <mxGeometry x="97.86796084247567" y="223.87531245851915" width="4.672539772115556" height="4.665236216357698" as="geometry" />
        </mxCell>
        <mxCell id="UgK-DBmtqTshojyYZRiE-52" value="" style="shape=stencil(lVbZctswDPwavWJAgOLxnKb/kZk4taeunXGcHn9fqKpUEbQ30zeZxpI4FgsM+vC2f3rdDcJv18v56+7H4fm6H/TTIHI47XeXw9W+Bn0c9OHlfNl9uZzfT8/z79enyXL6+nb+Pt3wc8apUNAJJfzr7wlF+XPwebY/Hk4b+3EkDo29MCUAyIG0BUQmifcBRSlzAxgrVb0PqEJaG0AuFIBLtVJpXapKXDBAWsCahtuAQtJmtSYqIGi7L5QWUJaobgOCr4M5GTNIa6IwNoDATMwAESh0T1QAyGmhzgYQQBBZaEwtIFMFaUrmwOjzKuCFVKg4QKQIKmcvqCuEUEQxhOXvFcCUAV1z9DEUexN1kBW2bYhSYAwl+hgMEFClzYHUvQAA1i9FuxgQIHsVmLKEABZ07Oow3gds2LwptYKOsA6rXZNKAoBE6nwyuiKhMX47l6whUJPmTmhMegD7ilBuS/1RV2dzuRcORHBd6LyRJkS/bAMh+bwWELX1HLu8mryCWv8/QBePV74yHBE25lypk1ACIyIKSW4AUaFYSvLaZydI8aUT/OWCm+ZMY8ukQgxu75rH3AMixsusWaOlCiocllRslgzgTCRpfRc8RkhcD1AAQySw7wCGYhei957h8A/GTvH2iAna2yPdstIkHy8qrRHFacS68920n1bClvt4Jfx4hbSPf/vny+F4nNfX7f9+X7WjedfVx98=);lineShape=1;strokeColor=default;" vertex="1" parent="1">
          <mxGeometry x="102.34425962998591" y="200.35502078344268" width="9.698960764228787" height="25.349582289285877" as="geometry" />
        </mxCell>
        <mxCell id="UgK-DBmtqTshojyYZRiE-53" value="" style="shape=stencil(lVbbchoxDP2afdXIli/yc5r+R2ZCClMKGUJvf1/RrTdYLGeat8Xo2LqcI2mSh7ft0+tmivx2Ph2/bn7uns/bST5NMe4O281pd7avSR4neXg5njZfTsfvh+f59+vTxfLy9e3443LDrxnXGsVyQUX+PZ+EQBz/nnyeAfvd4QqglRIPgFio6H1ArZTrAEhCjABMZQQUppzuA4pSaAOgFsoZACrpGENjUhB0yVRHl5qQBgBgSmEEFEr1PiBHiu4FpQxeSAZwMTSqIAYJNy80aqAO0eoQPCCCtBpzJI+ASgW4lCil0T53Nq7ac79tsY89zXfsow722khAEaSXaLG3ogF/GunovwrMaNBeoQWwVHG9BM0XWa2KDWSUKVQPQCFnI6p6lxJwKTfisWFoIgEA0w6zz6qCrJo6y03ZoNjsPvG8UNQwImUHyFQAIBsvHaBSQ+q0hnGjzoTUmaiNXArMPXHr3Ei+EPZEAYCQKDo9K5Sbkd8FXSiAoANlJ08hAWRlTwzrwgLk81H7SDymtOY+Wdar3Hnc7bNSAfmxftfGhJr8GDRI80hGgJ1U8MKFFaMUKgXAU7FZO9qb+EDE6SYCoYgatklznLQBzpyc/AixFo4Gc/TbCHeS31sVgnp7IAHbRZo4ezSVNfd6vsf7TxPrAyFQGO+3RgTitbajjkFwYJpgXacrMJ9XPWTppf2G9Qc+ug7+B8A+3rfPl91+Py+v1//7bdWO5k1XHv8A);lineShape=1;strokeColor=default;" vertex="1" parent="1">
          <mxGeometry x="272.0659738479857" y="113.0804036680064" width="5.86127417317482" height="21.141152139948645" as="geometry" />
        </mxCell>
        <mxCell id="UgK-DBmtqTshojyYZRiE-54" value="" style="shape=stencil(nZbZUttAEEW/Rq+3ZqZnfSbwH1RhYlWMTRmTwN/TRsgwLfuS5E2W52h6ub0McvW0vn1cDcE9Hfa7X6s/491hPciPIYRxu17tx4M+DXI9yNX9br/6ud89b++m34+3x5PHp4fd7+MXXiauZNR0pIJ7nd54B+/f39xMwGbcfgFqRYwdEDJauAy0iFI7IAbETICCKh2QKoJcBrxzcK4japrdunhFb1NzkEgAjxR6IEIqCZMCpQcKEnEiN7jWAw2xXAZSmg34zNwpDmeJ6FGLvcKRTISGZsKUUUhcg0Pr1dQEQtTkE0qvptrgiQ8+Wh9qnCN9Hqiz2E6ACpxkTuX8of8Z0BqJxCQpcL1eiyCTikiapj6sJcAzbQhqs8CHWs4CRU3y1qTEq9oV6zSruZbQzA0qFpIHlVrpAU0cLblmo6RGVpI4rUjjg4qPtrKEYIo6I5NMaxCjkXelTieNyaKoG0lc1KgnC7C2ISo1U6IFmdW0LBqTFhAB/EJL2ispEGcDTonLVK3/A8TeBw00K1GdabUfEBIQyA16vvdZG5WQRC8GkA8QZtBCSAgkpGlu0/Nx7Uisqzrk/vOCRkpNU2yaqqey1uuld1cvZCJNNl/fDKpoNwC+kyTtj9Gcb2RMZW/nWqCjNtfFCoPE2q9Y+ws8O/+vS9hfAPrwufPdj5vNtDJ+/d/uiPpq2i/l+g0=);lineShape=1;strokeColor=default;" vertex="1" parent="1">
          <mxGeometry x="110.93033388238655" y="307.9368874668219" width="5.330050273287725" height="16.194535026519134" as="geometry" />
        </mxCell>
        <mxCell id="UgK-DBmtqTshojyYZRiE-55" value="" style="shape=stencil(lVfLctswDPwaXTEECL7OafofmYlTe+rGGcfp4+8L1aUjQva2uckyVwQWiwU5xbvX7cPLZpLwejoevm5+7B5P2yl+mkR2z9vNcXeypyneT/Hu6XDcfDke3p4fz79fHuaV89O3w/f5Cz/POM3U0oyS8Ov8JipV+fPm8xmw3z0vADGT6gBQJeXbAEmUZADkQKEAQKRcBkBhkgpCUko8AhoMSRtxGwERJp2ZeAwpGwCElCvJGFIS0gYArX/vUodCDEJKlTgOACmUA0jaaB0LJ0oNAGKl4gCWdMR1cCExpQwA7LXElWIC0jCWRlr5UvtbgDJWmgPpP0IKY6Upgw0sZx2VESkirVYvbpMWrtpfBvt6ax4k7eqrHEiQjCzc7OIp4PupkLj2p4i+v9J16RW53geB2rieucvwFsBrKFEB9mKNE0c/4gYlkbSr/iJr6SK5DghdxItOi6hoieK6NUEOGnwO8w6oNVP3t2UOgNYoV1hKyC0CcfV1QG5hrZldLzNVvEMZW7NQRSnETvpCqoDU2XB9ayLlqYU7eou1Gkh4HrWrVkat/8H1JXXNvPMjwExr83ZtFWPgXc0qNiZsJcmAIQ6XiBeHBTRoW/EAM5AGSG0WgfMX7oPxOks2N0dV1EgKAFm7KjugCTWQgxrtDmA5oCGVPa8L4q4TK93UFzFl4GHmqu7AY54HtLGqW8aTXD2piaFb2BROThiCM24URrGaQwkYJGYvaewGc7yC7IVX5yPuh7hbo5/HHIw2RgaTvZIsq4xc23KoKwAaJBdOliEhT1Iq2SfNQBhmSjV5WmFItQttMapQv2lbATLUkq4OhVJhpecdVj6GGtRycFcYE18D4vvwreo/APbwfol72u335zvg8n9/6bNX5wtjvP8N);lineShape=1;strokeColor=default;" vertex="1" parent="1">
          <mxGeometry x="232.6847740658444" y="372.1037445698016" width="19.119953820664364" height="23.980302082832395" as="geometry" />
        </mxCell>
        <mxCell id="UgK-DBmtqTshojyYZRiE-56" value="" style="shape=stencil(fZbdcgIhDIWfZm8zQAg/17Z9j85U606tdqz9e/tmZ0c0uJ47xP0I5JwEBl59bp8/1kNwn6fj4W39M76ctgM/DCGM++36OJ50NPDjwKvN4bh+PR6+9i/z74/n6ctp9H74nlb4nbmSKZeJCu5vngmZ6jzzNAO7cX8FVKEsBuBKrgKg9oAE8gkCbLeUhEoEQKSUDZDLeWYRKIl8MEDRmHwfyBrBG6Amyu4+kDxxMoB3jhwgYu7TVAsVkFcWCs4CTBEoF4RctKeOxHIf8IXYpikHikAIf+MNUW94AGSSaoAoFIE3AlOyeWU+p2E5S9yfQZcQILVuQOwZdJNoS9Ls3wA5u2XZTIHECqeJ9kDpSaauRiNVcAY1QhdBzeLBli5WazpkSsBLV25uRaqWRyFawTQzRRIQYirJzq5atkBqLfouwqUxLBepthWb10vrWZY6UOAeyKCCtDV625mm9gmUC4Wc3VLJMMIE1BsA2FW9JraVlQB7n3c9oMKhCLEvIM1zBPZ25/umNQ1tVEC2G+fFCC8g398O2hNQuQlVu752DBfA+q0ptnqO5JFmeuIuo9DY7KjY71UxdJV4EntifPWorW++R/dC4t7V3DlIB5cHx2bc7eb3yvX//QNFp+bHDT/+Aw==);lineShape=1;strokeColor=default;" vertex="1" parent="1">
          <mxGeometry x="250.86796084247578" y="385.87531245851915" width="4.672539772115329" height="4.665236216357698" as="geometry" />
        </mxCell>
        <mxCell id="UgK-DBmtqTshojyYZRiE-57" value="" style="shape=stencil(fZbdcgIhDIWfZm8zQAg/17Z9j85U606tdqz9e/tmZ0c0uJ47xP0I5JwEBl59bp8/1kNwn6fj4W39M76ctgM/DCGM++36OJ50NPDjwKvN4bh+PR6+9i/z74/n6ctp9H74nlb4nbmSKZeJCu5vngmZ6jzzNAO7cX8FVKEsBuBKrgKg9oAE8gkCbLeUhEoEQKSUDZDLeWYRKIl8MEDRmHwfyBrBG6Amyu4+kDxxMoB3jhwgYu7TVAsVkFcWCs4CTBEoF4RctKeOxHIf8IXYpikHikAIf+MNUW94AGSSaoAoFIE3AlOyeWU+p2E5S9yfQZcQILVuQOwZdJNoS9Ls3wA5u2XZTIHECqeJ9kDpSaauRiNVcAY1QhdBzeLBli5WazpkSsBLV25uRaqWRyFawTQzRRIQYirJzq5atkBqLfouwqUxLBepthWb10vrWZY6UOAeyKCCtDV625mm9gmUC4Wc3VLJMMIE1BsA2FW9JraVlQB7n3c9oMKhCLEvIM1zBPZ25/umNQ1tVEC2G+fFCC8g398O2hNQuQlVu752DBfA+q0ptnqO5JFmeuIuo9DY7KjY71UxdJV4EntifPWorW++R/dC4t7V3DlIB5cHx2bc7eb3yvX//QNFp+bHDT/+Aw==);lineShape=1;strokeColor=default;" vertex="1" parent="1">
          <mxGeometry x="259.8679608424758" y="388.87531245851915" width="4.672539772115329" height="4.665236216357698" as="geometry" />
        </mxCell>
        <mxCell id="UgK-DBmtqTshojyYZRiE-58" value="" style="shape=stencil(lVZdb9swDPw1fiVEUp/PXfc/CjRdjGVJkabb+u9Lw7BbKvEVfVMcniQe7ygOeveyf3jeDRJeLufT792/8fGyH/THIDIe97vzeLHVoPeD3j2dzrtf59Pr8XH+/fwwRU6rP6e/0w7/Z1yhkiaQhLf5QwzE85efc/xhPH6Kl0y1OoAKlbANiIVScABRCrwNyI2qOgALRdkGtEDJAwJpAfFKnPt4cKGWKPt4hRQ147S4+EoZMNQaid+fMzEGtOYpjVTRjYzSLgOlFgGgUmMviy9qUEjEAxpFlEOk5klKcSnLbYAs+60AY6luA2qj4pWa0kL0bUAh7QC8aPc2IFH0tEY7oQFAJPG0qvGGclAq/gTTEtKqncCeVm4YkEi9lphJgDSMJfEAq6TCMuTuRhSQVmVh5MOdAQup0zZTBTUwpbLvFnlpH1tWqL5DsmIrmNmirxlDd3JYM1xlEbA915quABM7SqL0SVhbVsRq6ntYkoXnraYqV26r6ErfBRTpk84V2tM6UPPKqOZn4AXzVvUnmBgLSvpK2gGL1d5CD5haOcg5UfJSMjUy0J5S9t40d2TQX6T3grm1AobCFaNKFeQbSPz+JVMD97kygg0DBTzltr/nM8vC8G2rUfB8TppDiiDpbNOW8WeD/8769iCgepnLumfWWgWI/+609nW8LT5Gw6fxcJgny8//96OkfZrHUL1/Bw==);lineShape=1;strokeColor=default;" vertex="1" parent="1">
          <mxGeometry x="262.2329931128678" y="376.88695876292513" width="20.286061117383497" height="5.869332489050521" as="geometry" />
        </mxCell>
        <mxCell id="UgK-DBmtqTshojyYZRiE-59" value="" style="shape=stencil(lVbZbhsxDPyafR2Ios7nNP2PAHFqo64dOO719+VisRtTiAfNm7zmiNcMxUkf3vZPr7sphrfr5fx99/vwfN1P+mWK8XDa7y6Hq50mfZz04eV82X27nH+enpffr0+z5Xz6cf413/BnwfWCmmdUDH+XL3H78nUBHA+nG0CtKM0BsiDrfUCq0OgAXRADAQiaekBGrfcBmlB8Dr2hyX2ApZh9SBICAolJGmL3LjoiyVoCWvIAc1pI1uhD0nF1+bEDiG9DK2jk/i2/zX6L8M792dvXhEZ4kceSlk5pITI2rWQkBrCC+4qWiN5Il+uYggGYB81rhzaA0pqmiOybUCqEUbuO1K5CmZrDKE/TX2YAQfBVaopMeJQaSvWATquUrCY+6Z6QSNJaR6r2ik5CitbpAdDRIgGE9b4bQGVy1g9CKoTdZRx63apARlKEeCa1hkrVKYM6I73faCGeFqZ+1gN0r07jnZAWfNo+reGuAFUoYVG2mT3wlEotN4h3YNOCUMKkXn0GkTKiNARvH2g8Vdcn6d2ePSC1o+hgL2R4tYzoGSRQYt/DWu6tAchkvJtmx1lHx/WsDy8xe+GEMNQUmH2DJSESid08wRuiIROEuQjD7mJNJiz99LLzHwA7vO9WL4fjcVnNbv8fdzH7tOxx+vgP);lineShape=1;strokeColor=default;" vertex="1" parent="1">
          <mxGeometry x="273.8369340922238" y="372.0256232277022" width="8.141960878746886" height="11.089892641462257" as="geometry" />
        </mxCell>
        <mxCell id="UgK-DBmtqTshojyYZRiE-60" value="" style="shape=stencil(hVbLbhsxDPyavQ4kSqKkc5r+R4A4tVHXDhynj78vt4vdmoo7va1ljkgOhxSn9PC2f3rdTRLerpfz192Pw/N1P6VPk8jhtN9dDlf7mtLjlB5ezpfdl8v5/fS8/H59mi3nr2/n7/MNPxecBGiZURJ+LScBLf05+LzYHw+nG/vUkbx9RdZ/26tCg7OXQgE9o3UHKB01EECDeID5DJEAOvqQQkLqFFCjA7SI0AigojQPsCBZ0gnNs2Q0RBKS3VfVA8xDIQBB9yzFEBAIr7WuOW4uOqQSQIRWD1BEoiWtSJ7XHtCFAPIqnY1Xo4mEpAlZfKkVhfBqHoaQtKGTUlsOwXtQQcyUJfEsFUUlHixi9R6KZcVLXbyYip0QWk1MQ9Ilc31bANkDKjrTt1U6eZYSKsnBpDaMjWpziXi4UfOGaCikENYw2XdEK7TUvUB8Ibogs8kUUPygMR6YNkzNw2SaeSByrX1U3zyrGMAmXRtDyqxHGzSOSTdSufsAUrmsY49aBxVSB+lrmVZAbivR97URVyFsgEhfCBOzb9G08Xw/BbTBvqw33M9gzDgJAtFFGIf9/OiS+z+0gvABENYhur0Ndj+pwIcRFgXKlgaI7/5GHxIjbygXlDUyxJtHOoss1uH6QF//qGgy2LN3c96odLBnG9X/NzD7+Lu+vRyOx2X7u/1/XPfsaFkV0+Nv);lineShape=1;strokeColor=default;" vertex="1" parent="1">
          <mxGeometry x="265.8815939685006" y="374.87749776630153" width="13.159398533828153" height="10.144936517909855" as="geometry" />
        </mxCell>
      </root>
    </mxGraphModel>
  </diagram>
</mxfile>
